<svg width="516" height="233" viewBox="0 0 516 233" fill="none" xmlns="http://www.w3.org/2000/svg">
    <path d="M0.4 7.43617C0.4 3.55029 3.55087 0.4 7.43787 0.4H508.254C512.141 0.4 515.292 3.55028 515.292 7.43617V225.564C515.292 229.45 512.141 232.6 508.254 232.6H7.43786C3.55087 232.6 0.4 229.45 0.4 225.564V7.43617Z" stroke="white" stroke-opacity="0.5" stroke-width="0.8"/>
    <mask id="path-2-outside-1" maskUnits="userSpaceOnUse" x="40.9609" y="40.9619" width="150" height="28" fill="black">
        <rect fill="white" x="40.9609" y="40.9619" width="150" height="28"/>
        <path d="M52.9493 67.36C49.4829 67.36 46.7792 66.3895 44.838 64.4484C42.92 62.5072 41.9609 59.7359 41.9609 56.1343V42.3829H47.5764V55.9239C47.5764 60.3206 49.3789 62.5189 52.9839 62.5189C54.7402 62.5189 56.0806 61.9927 57.0049 60.9403C57.9293 59.8645 58.3915 58.1924 58.3915 55.9239V42.3829H63.9376V56.1343C63.9376 59.7359 62.9671 62.5072 61.0259 64.4484C59.1078 66.3895 56.4156 67.36 52.9493 67.36Z"/>
        <path d="M76.7661 67.36C74.8481 67.36 72.9878 67.1028 71.1853 66.5883C69.4059 66.0504 67.9731 65.3604 66.887 64.5185L68.7935 60.2387C69.8334 61.0105 71.0697 61.6302 72.5025 62.098C73.9353 62.5657 75.368 62.7996 76.8008 62.7996C78.3953 62.7996 79.5739 62.5657 80.3365 62.098C81.0991 61.6069 81.4804 60.9637 81.4804 60.1686C81.4804 59.5839 81.2493 59.1045 80.7871 58.7303C80.348 58.3327 79.7703 58.017 79.0539 57.7831C78.3606 57.5492 77.4132 57.292 76.2115 57.0113C74.3628 56.567 72.8491 56.1226 71.6706 55.6783C70.492 55.2339 69.4752 54.5206 68.6202 53.5384C67.7883 52.5562 67.3723 51.2465 67.3723 49.6094C67.3723 48.1828 67.7536 46.8965 68.5162 45.7506C69.2788 44.5812 70.4227 43.6575 71.9479 42.9792C73.4962 42.301 75.3796 41.9619 77.5981 41.9619C79.1464 41.9619 80.66 42.149 82.139 42.5232C83.618 42.8974 84.9121 43.4353 86.0213 44.1369L84.2881 48.4518C82.0465 47.1655 79.805 46.5223 77.5634 46.5223C75.992 46.5223 74.825 46.7796 74.0624 47.2941C73.3229 47.8086 72.9531 48.4868 72.9531 49.3288C72.9531 50.1707 73.3806 50.8021 74.2357 51.2231C75.1138 51.6207 76.4426 52.0183 78.222 52.4158C80.0707 52.8602 81.5844 53.3045 82.7629 53.7489C83.9415 54.1932 84.9467 54.8948 85.7787 55.8537C86.6337 56.8126 87.0612 58.1105 87.0612 59.7476C87.0612 61.1508 86.6684 62.4371 85.8826 63.6064C85.12 64.7524 83.9646 65.6645 82.4163 66.3427C80.868 67.0209 78.9846 67.36 76.7661 67.36Z"/>
        <path d="M90.205 42.3829H101.228C103.862 42.3829 106.185 42.8974 108.195 43.9264C110.229 44.932 111.8 46.3586 112.91 48.2062C114.042 50.0538 114.608 52.2053 114.608 54.661C114.608 57.1166 114.042 59.2682 112.91 61.1157C111.8 62.9633 110.229 64.4016 108.195 65.4306C106.185 66.4362 103.862 66.9391 101.228 66.9391H90.205V42.3829ZM100.951 62.2734C103.377 62.2734 105.307 61.5952 106.74 60.2387C108.195 58.8589 108.923 56.9997 108.923 54.661C108.923 52.3223 108.195 50.4747 106.74 49.1183C105.307 47.7385 103.377 47.0486 100.951 47.0486H95.8205V62.2734H100.951Z"/>
        <path d="M136.937 62.3786V66.9391H118.15V42.3829H136.487V46.9433H123.731V52.2755H134.996V56.6956H123.731V62.3786H136.937Z"/>
        <path d="M151.493 67.36C148.026 67.36 145.323 66.3895 143.381 64.4484C141.463 62.5072 140.504 59.7359 140.504 56.1343V42.3829H146.12V55.9239C146.12 60.3206 147.922 62.5189 151.527 62.5189C153.284 62.5189 154.624 61.9927 155.548 60.9403C156.473 59.8645 156.935 58.1924 156.935 55.9239V42.3829H162.481V56.1343C162.481 59.7359 161.51 62.5072 159.569 64.4484C157.651 66.3895 154.959 67.36 151.493 67.36Z"/>
        <path d="M182.797 66.9391L178.117 60.0984H177.84H172.952V66.9391H167.337V42.3829H177.84C179.989 42.3829 181.849 42.7454 183.421 43.4704C185.015 44.1954 186.24 45.2244 187.095 46.5574C187.95 47.8905 188.378 49.4691 188.378 51.2933C188.378 53.1174 187.939 54.696 187.06 56.0291C186.205 57.3388 184.981 58.3444 183.386 59.046L188.828 66.9391H182.797ZM182.693 51.2933C182.693 49.9134 182.254 48.861 181.376 48.136C180.497 47.3877 179.215 47.0135 177.528 47.0135H172.952V55.5731H177.528C179.215 55.5731 180.497 55.1989 181.376 54.4505C182.254 53.7021 182.693 52.6497 182.693 51.2933Z"/>
    </mask>
    <path d="M52.9493 67.36C49.4829 67.36 46.7792 66.3895 44.838 64.4484C42.92 62.5072 41.9609 59.7359 41.9609 56.1343V42.3829H47.5764V55.9239C47.5764 60.3206 49.3789 62.5189 52.9839 62.5189C54.7402 62.5189 56.0806 61.9927 57.0049 60.9403C57.9293 59.8645 58.3915 58.1924 58.3915 55.9239V42.3829H63.9376V56.1343C63.9376 59.7359 62.9671 62.5072 61.0259 64.4484C59.1078 66.3895 56.4156 67.36 52.9493 67.36Z" stroke="white" stroke-opacity="0.5" stroke-width="2" mask="url(#path-2-outside-1)"/>
    <path d="M76.7661 67.36C74.8481 67.36 72.9878 67.1028 71.1853 66.5883C69.4059 66.0504 67.9731 65.3604 66.887 64.5185L68.7935 60.2387C69.8334 61.0105 71.0697 61.6302 72.5025 62.098C73.9353 62.5657 75.368 62.7996 76.8008 62.7996C78.3953 62.7996 79.5739 62.5657 80.3365 62.098C81.0991 61.6069 81.4804 60.9637 81.4804 60.1686C81.4804 59.5839 81.2493 59.1045 80.7871 58.7303C80.348 58.3327 79.7703 58.017 79.0539 57.7831C78.3606 57.5492 77.4132 57.292 76.2115 57.0113C74.3628 56.567 72.8491 56.1226 71.6706 55.6783C70.492 55.2339 69.4752 54.5206 68.6202 53.5384C67.7883 52.5562 67.3723 51.2465 67.3723 49.6094C67.3723 48.1828 67.7536 46.8965 68.5162 45.7506C69.2788 44.5812 70.4227 43.6575 71.9479 42.9792C73.4962 42.301 75.3796 41.9619 77.5981 41.9619C79.1464 41.9619 80.66 42.149 82.139 42.5232C83.618 42.8974 84.9121 43.4353 86.0213 44.1369L84.2881 48.4518C82.0465 47.1655 79.805 46.5223 77.5634 46.5223C75.992 46.5223 74.825 46.7796 74.0624 47.2941C73.3229 47.8086 72.9531 48.4868 72.9531 49.3288C72.9531 50.1707 73.3806 50.8021 74.2357 51.2231C75.1138 51.6207 76.4426 52.0183 78.222 52.4158C80.0707 52.8602 81.5844 53.3045 82.7629 53.7489C83.9415 54.1932 84.9467 54.8948 85.7787 55.8537C86.6337 56.8126 87.0612 58.1105 87.0612 59.7476C87.0612 61.1508 86.6684 62.4371 85.8826 63.6064C85.12 64.7524 83.9646 65.6645 82.4163 66.3427C80.868 67.0209 78.9846 67.36 76.7661 67.36Z" stroke="white" stroke-opacity="0.5" stroke-width="2" mask="url(#path-2-outside-1)"/>
    <path d="M90.205 42.3829H101.228C103.862 42.3829 106.185 42.8974 108.195 43.9264C110.229 44.932 111.8 46.3586 112.91 48.2062C114.042 50.0538 114.608 52.2053 114.608 54.661C114.608 57.1166 114.042 59.2682 112.91 61.1157C111.8 62.9633 110.229 64.4016 108.195 65.4306C106.185 66.4362 103.862 66.9391 101.228 66.9391H90.205V42.3829ZM100.951 62.2734C103.377 62.2734 105.307 61.5952 106.74 60.2387C108.195 58.8589 108.923 56.9997 108.923 54.661C108.923 52.3223 108.195 50.4747 106.74 49.1183C105.307 47.7385 103.377 47.0486 100.951 47.0486H95.8205V62.2734H100.951Z" stroke="white" stroke-opacity="0.5" stroke-width="2" mask="url(#path-2-outside-1)"/>
    <path d="M136.937 62.3786V66.9391H118.15V42.3829H136.487V46.9433H123.731V52.2755H134.996V56.6956H123.731V62.3786H136.937Z" stroke="white" stroke-opacity="0.5" stroke-width="2" mask="url(#path-2-outside-1)"/>
    <path d="M151.493 67.36C148.026 67.36 145.323 66.3895 143.381 64.4484C141.463 62.5072 140.504 59.7359 140.504 56.1343V42.3829H146.12V55.9239C146.12 60.3206 147.922 62.5189 151.527 62.5189C153.284 62.5189 154.624 61.9927 155.548 60.9403C156.473 59.8645 156.935 58.1924 156.935 55.9239V42.3829H162.481V56.1343C162.481 59.7359 161.51 62.5072 159.569 64.4484C157.651 66.3895 154.959 67.36 151.493 67.36Z" stroke="white" stroke-opacity="0.5" stroke-width="2" mask="url(#path-2-outside-1)"/>
    <path d="M182.797 66.9391L178.117 60.0984H177.84H172.952V66.9391H167.337V42.3829H177.84C179.989 42.3829 181.849 42.7454 183.421 43.4704C185.015 44.1954 186.24 45.2244 187.095 46.5574C187.95 47.8905 188.378 49.4691 188.378 51.2933C188.378 53.1174 187.939 54.696 187.06 56.0291C186.205 57.3388 184.981 58.3444 183.386 59.046L188.828 66.9391H182.797ZM182.693 51.2933C182.693 49.9134 182.254 48.861 181.376 48.136C180.497 47.3877 179.215 47.0135 177.528 47.0135H172.952V55.5731H177.528C179.215 55.5731 180.497 55.1989 181.376 54.4505C182.254 53.7021 182.693 52.6497 182.693 51.2933Z" stroke="white" stroke-opacity="0.5" stroke-width="2" mask="url(#path-2-outside-1)"/>
    <path d="M510.169 225.823C510.169 227.347 509.073 228.583 507.72 228.583L434.214 228.583C432.862 228.583 431.766 227.347 431.766 225.823C431.766 224.298 432.862 223.062 434.214 223.062L507.72 223.062C509.073 223.062 510.169 224.298 510.169 225.823Z" fill="#1BC53C"/>
    <path d="M425.137 225.823C425.137 227.347 424.026 228.583 422.655 228.583L348.113 228.583C346.742 228.583 345.63 227.347 345.63 225.823C345.63 224.298 346.742 223.062 348.113 223.062L422.655 223.062C424.026 223.062 425.137 224.298 425.137 225.823Z" fill="#1BC53C"/>
    <path d="M340.114 225.823C340.114 227.347 339.002 228.583 337.631 228.583L263.09 228.583C261.718 228.583 260.607 227.347 260.607 225.823C260.607 224.298 261.718 223.062 263.09 223.062L337.631 223.062C339.002 223.062 340.114 224.298 340.114 225.823Z" fill="#1BC53C"/>
    <path d="M255.082 225.822C255.082 227.347 253.97 228.583 252.599 228.583L178.058 228.583C176.686 228.583 175.575 227.347 175.575 225.822C175.575 224.298 176.686 223.062 178.058 223.062L252.599 223.062C253.97 223.062 255.082 224.298 255.082 225.822Z" fill="#1BC53C"/>
    <path d="M170.055 225.823C170.055 227.347 168.944 228.583 167.573 228.583L93.0311 228.583C91.6599 228.583 90.5483 227.347 90.5483 225.823C90.5483 224.298 91.6599 223.062 93.0311 223.062L167.573 223.062C168.944 223.062 170.055 224.298 170.055 225.823Z" fill="#1BC53C"/>
    <path d="M83.9258 225.822C83.9258 227.347 82.8142 228.583 81.443 228.583L6.90144 228.583C5.53024 228.583 4.41867 227.347 4.41867 225.822C4.41867 224.298 5.53024 223.062 6.90144 223.062L81.443 223.062C82.8142 223.062 83.9258 224.298 83.9258 225.822Z" fill="#1BC53C"/>
    <mask id="path-9-outside-2" maskUnits="userSpaceOnUse" x="38.7539" y="92.8623" width="229" height="46" fill="black">
        <rect fill="white" x="38.7539" y="92.8623" width="229" height="46"/>
        <path d="M57.768 94.5761V136.215H48.1048V102.309H39.7539V94.5761H57.768Z"/>
        <path d="M82.9162 136.929C79.4565 136.929 76.3746 136.076 73.6706 134.371C70.9665 132.666 68.839 130.207 67.2881 126.995C65.777 123.743 65.0214 119.877 65.0214 115.395C65.0214 110.914 65.777 107.068 67.2881 103.856C68.839 100.604 70.9665 98.1253 73.6706 96.4201C76.3746 94.7149 79.4565 93.8623 82.9162 93.8623C86.3758 93.8623 89.4577 94.7149 92.1618 96.4201C94.8659 98.1253 96.9735 100.604 98.4846 103.856C100.036 107.068 100.811 110.914 100.811 115.395C100.811 119.877 100.036 123.743 98.4846 126.995C96.9735 130.207 94.8659 132.666 92.1618 134.371C89.4577 136.076 86.3758 136.929 82.9162 136.929ZM82.9162 128.779C85.4612 128.779 87.4495 127.689 88.8811 125.508C90.3525 123.327 91.0881 119.956 91.0881 115.395C91.0881 110.835 90.3525 107.464 88.8811 105.283C87.4495 103.102 85.4612 102.012 82.9162 102.012C80.4109 102.012 78.4226 103.102 76.9513 105.283C75.5197 107.464 74.8039 110.835 74.8039 115.395C74.8039 119.956 75.5197 123.327 76.9513 125.508C78.4226 127.689 80.4109 128.779 82.9162 128.779Z"/>
        <path d="M123.401 136.929C119.941 136.929 116.859 136.076 114.155 134.371C111.451 132.666 109.324 130.207 107.773 126.995C106.262 123.743 105.506 119.877 105.506 115.395C105.506 110.914 106.262 107.068 107.773 103.856C109.324 100.604 111.451 98.1253 114.155 96.4201C116.859 94.7149 119.941 93.8623 123.401 93.8623C126.86 93.8623 129.942 94.7149 132.646 96.4201C135.35 98.1253 137.458 100.604 138.969 103.856C140.52 107.068 141.296 110.914 141.296 115.395C141.296 119.877 140.52 123.743 138.969 126.995C137.458 130.207 135.35 132.666 132.646 134.371C129.942 136.076 126.86 136.929 123.401 136.929ZM123.401 128.779C125.946 128.779 127.934 127.689 129.366 125.508C130.837 123.327 131.573 119.956 131.573 115.395C131.573 110.835 130.837 107.464 129.366 105.283C127.934 103.102 125.946 102.012 123.401 102.012C120.896 102.012 118.907 103.102 117.436 105.283C116.004 107.464 115.288 110.835 115.288 115.395C115.288 119.956 116.004 123.327 117.436 125.508C118.907 127.689 120.896 128.779 123.401 128.779Z"/>
        <path d="M150.721 136.691C149.091 136.691 147.719 136.136 146.605 135.025C145.492 133.915 144.935 132.527 144.935 130.861C144.935 129.156 145.492 127.788 146.605 126.757C147.719 125.686 149.091 125.151 150.721 125.151C152.351 125.151 153.723 125.686 154.837 126.757C155.95 127.788 156.507 129.156 156.507 130.861C156.507 132.527 155.95 133.915 154.837 135.025C153.723 136.136 152.351 136.691 150.721 136.691Z"/>
        <path d="M192.6 94.5761V100.822L177.092 136.215H166.593L181.565 102.428H167.727V109.209H159.137V94.5761H192.6Z"/>
        <path d="M224.484 114.325C226.552 115.356 228.122 116.704 229.196 118.37C230.31 120.035 230.866 121.959 230.866 124.14C230.866 126.717 230.131 128.978 228.659 130.921C227.188 132.824 225.12 134.311 222.456 135.382C219.791 136.413 216.71 136.929 213.21 136.929C209.711 136.929 206.629 136.413 203.965 135.382C201.34 134.311 199.292 132.824 197.821 130.921C196.389 128.978 195.673 126.717 195.673 124.14C195.673 121.959 196.21 120.035 197.284 118.37C198.397 116.704 199.968 115.356 201.996 114.325C200.445 113.373 199.252 112.183 198.417 110.756C197.582 109.288 197.164 107.623 197.164 105.759C197.164 103.34 197.84 101.238 199.193 99.4538C200.545 97.6693 202.434 96.3011 204.859 95.3494C207.285 94.358 210.069 93.8623 213.21 93.8623C216.391 93.8623 219.195 94.358 221.621 95.3494C224.086 96.3011 225.995 97.6693 227.347 99.4538C228.699 101.238 229.375 103.34 229.375 105.759C229.375 107.623 228.958 109.288 228.122 110.756C227.287 112.183 226.074 113.373 224.484 114.325ZM213.21 100.941C211.262 100.941 209.691 101.417 208.498 102.369C207.345 103.281 206.768 104.55 206.768 106.175C206.768 107.762 207.345 109.011 208.498 109.923C209.651 110.835 211.222 111.291 213.21 111.291C215.198 111.291 216.789 110.835 217.982 109.923C219.175 109.011 219.772 107.762 219.772 106.175C219.772 104.55 219.175 103.281 217.982 102.369C216.789 101.417 215.198 100.941 213.21 100.941ZM213.21 129.85C215.636 129.85 217.545 129.315 218.936 128.244C220.368 127.134 221.084 125.666 221.084 123.842C221.084 122.018 220.368 120.571 218.936 119.5C217.545 118.429 215.636 117.894 213.21 117.894C210.824 117.894 208.935 118.429 207.543 119.5C206.152 120.571 205.456 122.018 205.456 123.842C205.456 125.706 206.152 127.173 207.543 128.244C208.935 129.315 210.824 129.85 213.21 129.85Z"/>
        <path d="M254.795 111.529C258.453 112.124 261.257 113.492 263.206 115.633C265.154 117.735 266.128 120.352 266.128 123.485C266.128 125.904 265.492 128.145 264.22 130.207C262.947 132.229 260.998 133.855 258.374 135.085C255.789 136.314 252.608 136.929 248.83 136.929C245.887 136.929 242.984 136.552 240.121 135.798C237.298 135.005 234.892 133.895 232.904 132.467L236.662 125.091C238.252 126.281 240.081 127.213 242.149 127.887C244.257 128.522 246.404 128.839 248.591 128.839C251.017 128.839 252.926 128.383 254.318 127.471C255.71 126.519 256.405 125.191 256.405 123.485C256.405 120.075 253.801 118.37 248.591 118.37H244.177V112.005L252.767 102.309H234.991V94.5761H264.22V100.822L254.795 111.529Z"/>
    </mask>
    <path d="M57.768 94.5761V136.215H48.1048V102.309H39.7539V94.5761H57.768Z" stroke="white" stroke-opacity="0.5" stroke-width="2" mask="url(#path-9-outside-2)"/>
    <path d="M82.9162 136.929C79.4565 136.929 76.3746 136.076 73.6706 134.371C70.9665 132.666 68.839 130.207 67.2881 126.995C65.777 123.743 65.0214 119.877 65.0214 115.395C65.0214 110.914 65.777 107.068 67.2881 103.856C68.839 100.604 70.9665 98.1253 73.6706 96.4201C76.3746 94.7149 79.4565 93.8623 82.9162 93.8623C86.3758 93.8623 89.4577 94.7149 92.1618 96.4201C94.8659 98.1253 96.9735 100.604 98.4846 103.856C100.036 107.068 100.811 110.914 100.811 115.395C100.811 119.877 100.036 123.743 98.4846 126.995C96.9735 130.207 94.8659 132.666 92.1618 134.371C89.4577 136.076 86.3758 136.929 82.9162 136.929ZM82.9162 128.779C85.4612 128.779 87.4495 127.689 88.8811 125.508C90.3525 123.327 91.0881 119.956 91.0881 115.395C91.0881 110.835 90.3525 107.464 88.8811 105.283C87.4495 103.102 85.4612 102.012 82.9162 102.012C80.4109 102.012 78.4226 103.102 76.9513 105.283C75.5197 107.464 74.8039 110.835 74.8039 115.395C74.8039 119.956 75.5197 123.327 76.9513 125.508C78.4226 127.689 80.4109 128.779 82.9162 128.779Z" stroke="white" stroke-opacity="0.5" stroke-width="2" mask="url(#path-9-outside-2)"/>
    <path d="M123.401 136.929C119.941 136.929 116.859 136.076 114.155 134.371C111.451 132.666 109.324 130.207 107.773 126.995C106.262 123.743 105.506 119.877 105.506 115.395C105.506 110.914 106.262 107.068 107.773 103.856C109.324 100.604 111.451 98.1253 114.155 96.4201C116.859 94.7149 119.941 93.8623 123.401 93.8623C126.86 93.8623 129.942 94.7149 132.646 96.4201C135.35 98.1253 137.458 100.604 138.969 103.856C140.52 107.068 141.296 110.914 141.296 115.395C141.296 119.877 140.52 123.743 138.969 126.995C137.458 130.207 135.35 132.666 132.646 134.371C129.942 136.076 126.86 136.929 123.401 136.929ZM123.401 128.779C125.946 128.779 127.934 127.689 129.366 125.508C130.837 123.327 131.573 119.956 131.573 115.395C131.573 110.835 130.837 107.464 129.366 105.283C127.934 103.102 125.946 102.012 123.401 102.012C120.896 102.012 118.907 103.102 117.436 105.283C116.004 107.464 115.288 110.835 115.288 115.395C115.288 119.956 116.004 123.327 117.436 125.508C118.907 127.689 120.896 128.779 123.401 128.779Z" stroke="white" stroke-opacity="0.5" stroke-width="2" mask="url(#path-9-outside-2)"/>
    <path d="M150.721 136.691C149.091 136.691 147.719 136.136 146.605 135.025C145.492 133.915 144.935 132.527 144.935 130.861C144.935 129.156 145.492 127.788 146.605 126.757C147.719 125.686 149.091 125.151 150.721 125.151C152.351 125.151 153.723 125.686 154.837 126.757C155.95 127.788 156.507 129.156 156.507 130.861C156.507 132.527 155.95 133.915 154.837 135.025C153.723 136.136 152.351 136.691 150.721 136.691Z" stroke="white" stroke-opacity="0.5" stroke-width="2" mask="url(#path-9-outside-2)"/>
    <path d="M192.6 94.5761V100.822L177.092 136.215H166.593L181.565 102.428H167.727V109.209H159.137V94.5761H192.6Z" stroke="white" stroke-opacity="0.5" stroke-width="2" mask="url(#path-9-outside-2)"/>
    <path d="M224.484 114.325C226.552 115.356 228.122 116.704 229.196 118.37C230.31 120.035 230.866 121.959 230.866 124.14C230.866 126.717 230.131 128.978 228.659 130.921C227.188 132.824 225.12 134.311 222.456 135.382C219.791 136.413 216.71 136.929 213.21 136.929C209.711 136.929 206.629 136.413 203.965 135.382C201.34 134.311 199.292 132.824 197.821 130.921C196.389 128.978 195.673 126.717 195.673 124.14C195.673 121.959 196.21 120.035 197.284 118.37C198.397 116.704 199.968 115.356 201.996 114.325C200.445 113.373 199.252 112.183 198.417 110.756C197.582 109.288 197.164 107.623 197.164 105.759C197.164 103.34 197.84 101.238 199.193 99.4538C200.545 97.6693 202.434 96.3011 204.859 95.3494C207.285 94.358 210.069 93.8623 213.21 93.8623C216.391 93.8623 219.195 94.358 221.621 95.3494C224.086 96.3011 225.995 97.6693 227.347 99.4538C228.699 101.238 229.375 103.34 229.375 105.759C229.375 107.623 228.958 109.288 228.122 110.756C227.287 112.183 226.074 113.373 224.484 114.325ZM213.21 100.941C211.262 100.941 209.691 101.417 208.498 102.369C207.345 103.281 206.768 104.55 206.768 106.175C206.768 107.762 207.345 109.011 208.498 109.923C209.651 110.835 211.222 111.291 213.21 111.291C215.198 111.291 216.789 110.835 217.982 109.923C219.175 109.011 219.772 107.762 219.772 106.175C219.772 104.55 219.175 103.281 217.982 102.369C216.789 101.417 215.198 100.941 213.21 100.941ZM213.21 129.85C215.636 129.85 217.545 129.315 218.936 128.244C220.368 127.134 221.084 125.666 221.084 123.842C221.084 122.018 220.368 120.571 218.936 119.5C217.545 118.429 215.636 117.894 213.21 117.894C210.824 117.894 208.935 118.429 207.543 119.5C206.152 120.571 205.456 122.018 205.456 123.842C205.456 125.706 206.152 127.173 207.543 128.244C208.935 129.315 210.824 129.85 213.21 129.85Z" stroke="white" stroke-opacity="0.5" stroke-width="2" mask="url(#path-9-outside-2)"/>
    <path d="M254.795 111.529C258.453 112.124 261.257 113.492 263.206 115.633C265.154 117.735 266.128 120.352 266.128 123.485C266.128 125.904 265.492 128.145 264.22 130.207C262.947 132.229 260.998 133.855 258.374 135.085C255.789 136.314 252.608 136.929 248.83 136.929C245.887 136.929 242.984 136.552 240.121 135.798C237.298 135.005 234.892 133.895 232.904 132.467L236.662 125.091C238.252 126.281 240.081 127.213 242.149 127.887C244.257 128.522 246.404 128.839 248.591 128.839C251.017 128.839 252.926 128.383 254.318 127.471C255.71 126.519 256.405 125.191 256.405 123.485C256.405 120.075 253.801 118.37 248.591 118.37H244.177V112.005L252.767 102.309H234.991V94.5761H264.22V100.822L254.795 111.529Z" stroke="white" stroke-opacity="0.5" stroke-width="2" mask="url(#path-9-outside-2)"/>
    <path d="M99.7385 172.265V171.865H99.3385H91.6565H91.2565V172.265V175.147V175.547H91.6565H95.3462V190.773V191.173H95.7462H99.3385H99.7385V190.773V172.265ZM110.263 172.265V171.865H109.863H102.181H101.781V172.265V175.147V175.547H102.181H105.871V190.773V191.173H106.271H109.863H110.263V190.773V172.265ZM113.976 180.566L113.976 180.566L113.982 180.572C114.502 181.048 115.134 181.285 115.855 181.285C116.577 181.285 117.209 181.048 117.728 180.572L117.729 180.572L117.735 180.566C118.259 180.064 118.521 179.43 118.521 178.69C118.521 177.938 118.262 177.3 117.732 176.812C117.226 176.33 116.591 176.096 115.855 176.096C115.119 176.096 114.476 176.331 113.955 176.809L113.955 176.809L113.949 176.815C113.437 177.305 113.189 177.943 113.189 178.69C113.189 179.43 113.452 180.064 113.976 180.566ZM113.976 190.639L113.976 190.64L113.982 190.645C114.502 191.122 115.134 191.359 115.855 191.359C116.577 191.359 117.209 191.122 117.728 190.645L117.729 190.645L117.735 190.639C118.259 190.138 118.521 189.503 118.521 188.764C118.521 188.012 118.262 187.374 117.732 186.886C117.226 186.404 116.591 186.17 115.855 186.17C115.119 186.17 114.476 186.404 113.955 186.883L113.955 186.883L113.949 186.889C113.437 187.378 113.189 188.016 113.189 188.764C113.189 189.503 113.452 190.138 113.976 190.639ZM130.492 185.221C130.492 185.968 130.19 186.543 129.559 186.981C128.932 187.411 128.027 187.65 126.802 187.65C125.775 187.65 124.776 187.498 123.803 187.194C122.847 186.871 122.033 186.442 121.357 185.911L120.992 185.625L120.762 186.028L119.242 188.698L119.069 189.003L119.348 189.215C120.278 189.919 121.41 190.467 122.735 190.866L122.735 190.866L122.74 190.867C124.067 191.248 125.439 191.438 126.857 191.438C128.573 191.438 130.044 191.168 131.253 190.608C132.452 190.053 133.374 189.292 133.993 188.318C134.606 187.352 134.912 186.272 134.912 185.089C134.912 183.228 134.207 181.733 132.795 180.648C131.384 179.546 129.26 179.031 126.498 179.031H125.087L125.424 175.547H133.379H133.779V175.147V172.265V171.865H133.379H122.022H121.659L121.623 172.226L120.629 182.3L120.585 182.739H121.027H125.697C127.584 182.739 128.818 182.989 129.488 183.417L129.488 183.417L129.498 183.422C130.165 183.823 130.492 184.404 130.492 185.221ZM144.103 175.547L140.293 179.88L140.194 179.994V180.145V182.498V182.898H140.594H142.362C143.749 182.898 144.697 183.142 145.278 183.562L145.278 183.562L145.288 183.569C145.876 183.968 146.163 184.513 146.163 185.248C146.163 185.974 145.864 186.541 145.23 186.981C144.603 187.411 143.698 187.65 142.473 187.65C141.446 187.65 140.447 187.498 139.474 187.194C138.518 186.872 137.716 186.443 137.059 185.914L136.696 185.622L136.462 186.025L134.915 188.696L134.735 189.005L135.022 189.217C135.968 189.919 137.098 190.466 138.405 190.865L138.405 190.865L138.411 190.867C139.737 191.248 141.11 191.438 142.528 191.438C144.225 191.438 145.684 191.177 146.892 190.636L146.894 190.635C148.109 190.082 149.041 189.331 149.662 188.373C150.276 187.426 150.583 186.372 150.583 185.221C150.583 183.696 150.077 182.403 149.058 181.371C148.176 180.477 146.968 179.902 145.467 179.621L149.682 174.83L149.781 174.717V174.566V172.265V171.865H149.381H136.2H135.8V172.265V175.147V175.547H136.2H144.103Z" stroke="white" stroke-opacity="0.5" stroke-width="0.8"/>
    <path fill-rule="evenodd" clip-rule="evenodd" d="M61.8209 164.536C52.6775 164.536 45.2734 171.956 45.2734 181.1C45.2734 190.243 52.6775 197.664 61.8209 197.664C70.9807 197.664 78.4014 190.243 78.4014 181.1C78.4014 171.956 70.9807 164.536 61.8209 164.536ZM61.8374 194.351C54.5161 194.351 48.5862 188.421 48.5862 181.1C48.5862 173.778 54.5161 167.848 61.8374 167.848C69.1587 167.848 75.0886 173.778 75.0886 181.1C75.0886 188.421 69.1587 194.351 61.8374 194.351ZM60.181 172.818H62.6656V181.514L70.1194 185.936L68.8771 187.974L60.181 182.756V172.818Z" stroke="white" stroke-opacity="0.5" stroke-width="0.8"/>
    <path fill-rule="evenodd" clip-rule="evenodd" d="M200.973 164.535C191.83 164.535 184.409 171.956 184.409 181.099C184.409 190.243 191.83 197.663 200.973 197.663C210.117 197.663 217.537 190.243 217.537 181.099C217.537 171.956 210.117 164.535 200.973 164.535ZM207.997 174.076C206.059 172.138 203.524 171.161 200.973 171.161V181.099L193.95 188.123C197.826 191.998 204.121 191.998 208.013 188.123C211.889 184.247 211.889 177.952 207.997 174.076ZM187.722 181.099C187.722 188.421 193.652 194.351 200.973 194.351C208.295 194.351 214.225 188.421 214.225 181.099C214.225 173.778 208.295 167.848 200.973 167.848C193.652 167.848 187.722 173.778 187.722 181.099Z" stroke="white" stroke-opacity="0.5"/>
    <path d="M244.498 181.167C243.64 180.275 242.481 179.693 241.055 179.393L245.117 174.648L245.237 174.508V174.323V171.989V171.489H244.737H231.721H231.221V171.989V174.913V175.413H231.721H239.313L235.68 179.659L235.559 179.799V179.984V182.372V182.872H236.059H237.806C239.165 182.872 240.072 183.118 240.618 183.524L240.624 183.529L240.631 183.533C241.182 183.918 241.454 184.441 241.454 185.162C241.454 185.873 241.172 186.42 240.573 186.847C239.978 187.267 239.11 187.506 237.915 187.506C236.914 187.506 235.939 187.354 234.99 187.049C234.057 186.726 233.277 186.297 232.64 185.77L232.179 185.388L231.885 185.909L230.357 188.619L230.143 188.998L230.49 189.262C231.434 189.983 232.562 190.544 233.863 190.952L233.863 190.952L233.871 190.954C235.192 191.344 236.559 191.538 237.97 191.538C239.657 191.538 241.116 191.271 242.327 190.714L242.33 190.713C243.545 190.144 244.481 189.37 245.106 188.38C245.722 187.403 246.029 186.318 246.029 185.135C246.029 183.569 245.523 182.234 244.498 181.167ZM251.455 190.332L251.454 190.332L251.459 190.335C252.746 191.14 254.203 191.538 255.818 191.538C257.432 191.538 258.89 191.14 260.176 190.335L260.178 190.334C261.485 189.509 262.5 188.323 263.227 186.799L263.229 186.797C263.958 185.25 264.313 183.439 264.313 181.379C264.313 179.32 263.958 177.517 263.228 175.987C262.502 174.446 261.487 173.259 260.177 172.451C258.891 171.628 257.433 171.22 255.818 171.22C254.202 171.22 252.743 171.628 251.457 172.452C250.165 173.261 249.16 174.448 248.434 175.987C247.704 177.517 247.349 179.32 247.349 181.379C247.349 183.439 247.705 185.25 248.434 186.797L248.435 186.799C249.161 188.322 250.166 189.507 251.455 190.332ZM258.632 186.05L258.632 186.05L258.629 186.054C257.941 187.03 257.021 187.506 255.818 187.506C254.636 187.506 253.713 187.032 253.005 186.052C252.309 185.065 251.924 183.533 251.924 181.379C251.924 179.225 252.309 177.693 253.005 176.706C253.713 175.726 254.636 175.252 255.818 175.252C257.021 175.252 257.941 175.728 258.629 176.704L258.629 176.704L258.632 176.708C259.344 177.694 259.738 179.225 259.738 181.379C259.738 183.533 259.344 185.064 258.632 186.05ZM299.158 191.27H299.658V190.77V182.56C299.658 180.388 299.101 178.671 297.897 177.506C296.711 176.341 295.119 175.781 293.182 175.781C291.974 175.781 290.857 176.008 289.841 176.468C289.039 176.818 288.346 177.284 287.767 177.87C287.273 177.262 286.656 176.787 285.92 176.447C285.005 175.998 283.965 175.781 282.812 175.781C281.754 175.781 280.778 175.961 279.892 176.329C279.396 176.535 278.944 176.794 278.537 177.105V176.442V175.942H278.037H274.789H274.289V176.442V190.77V191.27H274.789H278.2H278.7V190.77V183.499C278.7 182.18 279.018 181.256 279.576 180.647C280.158 180.031 280.945 179.706 281.994 179.706C282.941 179.706 283.599 179.99 284.046 180.501L284.046 180.501L284.051 180.506C284.5 181.005 284.768 181.802 284.768 182.989V190.77V191.27H285.268H288.679H289.179V190.77V183.499C289.179 182.202 289.504 181.287 290.08 180.676L290.08 180.676L290.084 180.671C290.669 180.036 291.447 179.706 292.473 179.706C293.42 179.706 294.078 179.99 294.525 180.501L294.525 180.501L294.53 180.506C294.979 181.005 295.247 181.802 295.247 182.989V190.77V191.27H295.747H299.158ZM303.517 175.942H303.017V176.442V190.77V191.27H303.517H306.928H307.428V190.77V176.442V175.942H306.928H303.517ZM303.339 173.882L303.338 173.882L303.347 173.89C303.867 174.357 304.508 174.581 305.237 174.581C305.985 174.581 306.636 174.346 307.143 173.848L306.792 173.491L307.143 173.848C307.657 173.342 307.92 172.712 307.92 171.989C307.92 171.291 307.649 170.697 307.122 170.244C306.603 169.78 305.963 169.557 305.237 169.557C304.503 169.557 303.861 169.794 303.343 170.279C302.819 170.751 302.553 171.36 302.553 172.069C302.553 172.78 302.82 173.395 303.339 173.882ZM325.76 191.27H326.26V190.77V182.56C326.26 180.398 325.68 178.682 324.439 177.502L324.103 177.855L324.439 177.502C323.219 176.341 321.613 175.781 319.674 175.781C318.548 175.781 317.52 175.96 316.597 176.327C316.066 176.537 315.584 176.807 315.153 177.136V176.442V175.942H314.653H311.406H310.906V176.442V190.77V191.27H311.406H314.817H315.317V190.77V183.526C315.317 182.215 315.657 181.296 316.263 180.685L316.267 180.681C316.882 180.046 317.734 179.706 318.883 179.706C319.892 179.706 320.6 179.995 321.082 180.513L321.087 180.518C321.565 181.016 321.848 181.809 321.848 182.989V190.77V191.27H322.348H325.76Z" stroke="white" stroke-opacity="0.5"/>
    <path fill-rule="evenodd" clip-rule="evenodd" d="M356.896 181.1L364.515 188.719L362.196 191.038L352.258 181.1L362.196 171.161L364.515 173.48L356.896 181.1ZM380.748 181.1L373.128 188.719L375.447 191.038L385.386 181.1L375.447 171.161L373.128 173.48L380.748 181.1Z" stroke="white" stroke-opacity="0.5"/>
    <path d="M422.995 190.88L422.993 190.88C421.599 190.442 420.46 189.852 419.601 189.093L419.329 188.852L419.474 188.519L420.688 185.731L420.95 185.128L421.461 185.541C422.183 186.126 423.074 186.615 424.145 187.005C425.228 187.373 426.305 187.556 427.378 187.556C428.744 187.556 429.667 187.329 430.229 186.951L430.233 186.948L430.234 186.948C430.813 186.568 431.06 186.109 431.06 185.544C431.06 185.127 430.918 184.816 430.635 184.566L430.626 184.558L430.617 184.549C430.302 184.242 429.885 183.991 429.348 183.808C428.774 183.612 427.98 183.386 426.961 183.13C426.961 183.13 426.96 183.13 426.96 183.13L427.082 182.645L422.995 190.88ZM422.995 190.88C424.411 191.318 425.872 191.537 427.378 191.537M422.995 190.88L427.378 191.537M427.378 191.537C429.082 191.537 430.559 191.272 431.791 190.721C433.009 190.175 433.947 189.43 434.568 188.468C435.198 187.519 435.513 186.457 435.513 185.295C435.513 183.958 435.166 182.836 434.42 181.986C433.738 181.19 432.908 180.6 431.934 180.221C431.004 179.84 429.828 179.484 428.414 179.15C427.396 178.894 426.603 178.668 426.029 178.472C425.489 178.288 425.056 178.044 424.719 177.747C424.455 177.5 424.317 177.187 424.317 176.765C424.317 176.142 424.566 175.656 425.105 175.268L427.378 191.537ZM417.211 182.248L417.213 182.245C417.915 181.107 418.258 179.789 418.258 178.311C418.258 176.815 417.916 175.496 417.211 174.373C416.506 173.251 415.491 172.398 414.188 171.81C412.905 171.222 411.41 170.937 409.719 170.937H401.949H401.449V171.437V190.761V191.261H401.949H405.456H405.956V190.761V185.685H409.719C411.41 185.685 412.905 185.4 414.188 184.812C415.491 184.224 416.506 183.37 417.211 182.248ZM439.435 191.261H439.768L439.897 190.953L441.63 186.789H450.407L452.167 190.956L452.296 191.261H452.627H456.296H457.063L456.754 190.56L448.229 171.235L448.097 170.937H447.771H444.318H443.992L443.86 171.235L435.362 190.56L435.054 191.261H435.82H439.435ZM470.641 191.043L470.79 191.261H471.054H474.831H475.779L475.243 190.479L471.239 184.626C472.349 184.083 473.232 183.323 473.872 182.341C474.635 181.198 475.007 179.847 475.007 178.311C475.007 176.815 474.664 175.496 473.959 174.373C473.254 173.251 472.24 172.398 470.937 171.81C469.654 171.222 468.159 170.937 466.468 170.937H458.698H458.198V171.437V190.761V191.261H458.698H462.205H462.705V190.761V185.63H466.468C466.646 185.63 466.805 185.627 466.945 185.621L470.641 191.043ZM412.716 180.771C412.049 181.329 411.023 181.648 409.557 181.648H405.956V174.973H409.557C411.023 174.973 412.049 175.292 412.716 175.851C413.372 176.4 413.724 177.194 413.724 178.311C413.724 179.428 413.372 180.222 412.716 180.771ZM443.235 182.973L446.019 176.317L448.825 182.973H443.235ZM469.465 175.851C470.12 176.4 470.473 177.194 470.473 178.311C470.473 179.426 470.121 180.232 469.462 180.801C468.795 181.358 467.77 181.676 466.306 181.676H462.705V174.973H466.306C467.772 174.973 468.798 175.292 469.465 175.851Z" stroke="white" stroke-opacity="0.5"/>
    <path d="M447.783 99.8872C449.499 96.9374 453.792 96.9374 455.508 99.8872L474.835 133.11C476.547 136.052 474.411 139.741 470.973 139.741L432.318 139.741C428.88 139.741 426.744 136.052 428.456 133.11L447.783 99.8872Z" stroke="white" stroke-opacity="0.5"/>
    <path d="M396.93 62.2802C396.93 59.8834 398.92 57.9214 401.399 57.9214C403.878 57.9214 405.868 59.8834 405.868 62.2802V64.7095C405.868 67.1063 403.878 69.0683 401.399 69.0683C398.92 69.0683 396.93 67.1063 396.93 64.7095V62.2802Z" stroke="white" stroke-opacity="0.5"/>
    <path d="M414.601 56.9485C414.601 54.4292 416.609 52.4004 419.07 52.4004C421.531 52.4004 423.539 54.4292 423.539 56.9485V64.5206C423.539 67.0398 421.531 69.0686 419.07 69.0686C416.609 69.0686 414.601 67.0398 414.601 64.5206V56.9485Z" stroke="white" stroke-opacity="0.5"/>
    <path d="M432.27 52.3912C432.27 49.9627 434.265 47.9834 436.739 47.9834C439.213 47.9834 441.208 49.9627 441.208 52.3912V64.6609C441.208 67.0894 439.213 69.0687 436.739 69.0687C434.265 69.0687 432.27 67.0894 432.27 64.6609V52.3912Z" stroke="white" stroke-opacity="0.5"/>
    <path d="M448.828 46.9813C448.828 44.4806 450.834 42.4619 453.297 42.4619C455.761 42.4619 457.767 44.4806 457.767 46.9813V64.5492C457.767 67.0499 455.761 69.0685 453.297 69.0685C450.834 69.0685 448.828 67.0499 448.828 64.5492V46.9813Z" stroke="white" stroke-opacity="0.5"/>
    <path d="M466.496 42.4716C466.496 40.0309 468.493 38.0449 470.965 38.0449C473.438 38.0449 475.434 40.0309 475.434 42.4716V64.6419C475.434 67.0827 473.438 69.0686 470.965 69.0686C468.493 69.0686 466.496 67.0827 466.496 64.6419V42.4716Z" stroke="white" stroke-opacity="0.5"/>
</svg>
