<svg width="516" height="233" viewBox="0 0 516 233" fill="none" xmlns="http://www.w3.org/2000/svg">
    <path d="M0.4 7.43617C0.4 3.55029 3.55087 0.4 7.43787 0.4H508.254C512.141 0.4 515.292 3.55028 515.292 7.43617V225.564C515.292 229.45 512.141 232.6 508.254 232.6H7.43786C3.55087 232.6 0.4 229.45 0.4 225.564V7.43617Z" stroke="white" stroke-opacity="0.5" stroke-width="0.8"/>
    <mask id="path-2-outside-1" maskUnits="userSpaceOnUse" x="40.9609" y="40.9619" width="150" height="28" fill="black">
        <rect fill="white" x="40.9609" y="40.9619" width="150" height="28"/>
        <path d="M52.9493 67.36C49.4829 67.36 46.7792 66.3895 44.838 64.4484C42.92 62.5072 41.9609 59.7359 41.9609 56.1343V42.3829H47.5764V55.9239C47.5764 60.3206 49.3789 62.5189 52.9839 62.5189C54.7402 62.5189 56.0806 61.9927 57.0049 60.9403C57.9293 59.8645 58.3915 58.1924 58.3915 55.9239V42.3829H63.9376V56.1343C63.9376 59.7359 62.9671 62.5072 61.0259 64.4484C59.1078 66.3895 56.4156 67.36 52.9493 67.36Z"/>
        <path d="M76.7661 67.36C74.8481 67.36 72.9878 67.1028 71.1853 66.5883C69.4059 66.0504 67.9731 65.3604 66.887 64.5185L68.7935 60.2387C69.8334 61.0105 71.0697 61.6302 72.5025 62.098C73.9353 62.5657 75.368 62.7996 76.8008 62.7996C78.3953 62.7996 79.5739 62.5657 80.3365 62.098C81.0991 61.6069 81.4804 60.9637 81.4804 60.1686C81.4804 59.5839 81.2493 59.1045 80.7871 58.7303C80.348 58.3327 79.7703 58.017 79.0539 57.7831C78.3606 57.5492 77.4132 57.292 76.2115 57.0113C74.3628 56.567 72.8491 56.1226 71.6706 55.6783C70.492 55.2339 69.4752 54.5206 68.6202 53.5384C67.7883 52.5562 67.3723 51.2465 67.3723 49.6094C67.3723 48.1828 67.7536 46.8965 68.5162 45.7506C69.2788 44.5812 70.4227 43.6575 71.9479 42.9792C73.4962 42.301 75.3796 41.9619 77.5981 41.9619C79.1464 41.9619 80.66 42.149 82.139 42.5232C83.618 42.8974 84.9121 43.4353 86.0213 44.1369L84.2881 48.4518C82.0465 47.1655 79.805 46.5223 77.5634 46.5223C75.992 46.5223 74.825 46.7796 74.0624 47.2941C73.3229 47.8086 72.9531 48.4868 72.9531 49.3288C72.9531 50.1707 73.3806 50.8021 74.2357 51.2231C75.1138 51.6207 76.4426 52.0183 78.222 52.4158C80.0707 52.8602 81.5844 53.3045 82.7629 53.7489C83.9415 54.1932 84.9467 54.8948 85.7787 55.8537C86.6337 56.8126 87.0612 58.1105 87.0612 59.7476C87.0612 61.1508 86.6684 62.4371 85.8826 63.6064C85.12 64.7524 83.9646 65.6645 82.4163 66.3427C80.868 67.0209 78.9846 67.36 76.7661 67.36Z"/>
        <path d="M90.205 42.3829H101.228C103.862 42.3829 106.185 42.8974 108.195 43.9264C110.229 44.932 111.8 46.3586 112.91 48.2062C114.042 50.0538 114.608 52.2053 114.608 54.661C114.608 57.1166 114.042 59.2682 112.91 61.1157C111.8 62.9633 110.229 64.4016 108.195 65.4306C106.185 66.4362 103.862 66.9391 101.228 66.9391H90.205V42.3829ZM100.951 62.2734C103.377 62.2734 105.307 61.5952 106.74 60.2387C108.195 58.8589 108.923 56.9997 108.923 54.661C108.923 52.3223 108.195 50.4747 106.74 49.1183C105.307 47.7385 103.377 47.0486 100.951 47.0486H95.8205V62.2734H100.951Z"/>
        <path d="M136.937 62.3786V66.9391H118.15V42.3829H136.487V46.9433H123.731V52.2755H134.996V56.6956H123.731V62.3786H136.937Z"/>
        <path d="M151.493 67.36C148.026 67.36 145.323 66.3895 143.381 64.4484C141.463 62.5072 140.504 59.7359 140.504 56.1343V42.3829H146.12V55.9239C146.12 60.3206 147.922 62.5189 151.527 62.5189C153.284 62.5189 154.624 61.9927 155.548 60.9403C156.473 59.8645 156.935 58.1924 156.935 55.9239V42.3829H162.481V56.1343C162.481 59.7359 161.51 62.5072 159.569 64.4484C157.651 66.3895 154.959 67.36 151.493 67.36Z"/>
        <path d="M182.797 66.9391L178.117 60.0984H177.84H172.952V66.9391H167.337V42.3829H177.84C179.989 42.3829 181.849 42.7454 183.421 43.4704C185.015 44.1954 186.24 45.2244 187.095 46.5574C187.95 47.8905 188.378 49.4691 188.378 51.2933C188.378 53.1174 187.939 54.696 187.06 56.0291C186.205 57.3388 184.981 58.3444 183.386 59.046L188.828 66.9391H182.797ZM182.693 51.2933C182.693 49.9134 182.254 48.861 181.376 48.136C180.497 47.3877 179.215 47.0135 177.528 47.0135H172.952V55.5731H177.528C179.215 55.5731 180.497 55.1989 181.376 54.4505C182.254 53.7021 182.693 52.6497 182.693 51.2933Z"/>
    </mask>
    <path d="M52.9493 67.36C49.4829 67.36 46.7792 66.3895 44.838 64.4484C42.92 62.5072 41.9609 59.7359 41.9609 56.1343V42.3829H47.5764V55.9239C47.5764 60.3206 49.3789 62.5189 52.9839 62.5189C54.7402 62.5189 56.0806 61.9927 57.0049 60.9403C57.9293 59.8645 58.3915 58.1924 58.3915 55.9239V42.3829H63.9376V56.1343C63.9376 59.7359 62.9671 62.5072 61.0259 64.4484C59.1078 66.3895 56.4156 67.36 52.9493 67.36Z" stroke="white" stroke-opacity="0.5" stroke-width="2" mask="url(#path-2-outside-1)"/>
    <path d="M76.7661 67.36C74.8481 67.36 72.9878 67.1028 71.1853 66.5883C69.4059 66.0504 67.9731 65.3604 66.887 64.5185L68.7935 60.2387C69.8334 61.0105 71.0697 61.6302 72.5025 62.098C73.9353 62.5657 75.368 62.7996 76.8008 62.7996C78.3953 62.7996 79.5739 62.5657 80.3365 62.098C81.0991 61.6069 81.4804 60.9637 81.4804 60.1686C81.4804 59.5839 81.2493 59.1045 80.7871 58.7303C80.348 58.3327 79.7703 58.017 79.0539 57.7831C78.3606 57.5492 77.4132 57.292 76.2115 57.0113C74.3628 56.567 72.8491 56.1226 71.6706 55.6783C70.492 55.2339 69.4752 54.5206 68.6202 53.5384C67.7883 52.5562 67.3723 51.2465 67.3723 49.6094C67.3723 48.1828 67.7536 46.8965 68.5162 45.7506C69.2788 44.5812 70.4227 43.6575 71.9479 42.9792C73.4962 42.301 75.3796 41.9619 77.5981 41.9619C79.1464 41.9619 80.66 42.149 82.139 42.5232C83.618 42.8974 84.9121 43.4353 86.0213 44.1369L84.2881 48.4518C82.0465 47.1655 79.805 46.5223 77.5634 46.5223C75.992 46.5223 74.825 46.7796 74.0624 47.2941C73.3229 47.8086 72.9531 48.4868 72.9531 49.3288C72.9531 50.1707 73.3806 50.8021 74.2357 51.2231C75.1138 51.6207 76.4426 52.0183 78.222 52.4158C80.0707 52.8602 81.5844 53.3045 82.7629 53.7489C83.9415 54.1932 84.9467 54.8948 85.7787 55.8537C86.6337 56.8126 87.0612 58.1105 87.0612 59.7476C87.0612 61.1508 86.6684 62.4371 85.8826 63.6064C85.12 64.7524 83.9646 65.6645 82.4163 66.3427C80.868 67.0209 78.9846 67.36 76.7661 67.36Z" stroke="white" stroke-opacity="0.5" stroke-width="2" mask="url(#path-2-outside-1)"/>
    <path d="M90.205 42.3829H101.228C103.862 42.3829 106.185 42.8974 108.195 43.9264C110.229 44.932 111.8 46.3586 112.91 48.2062C114.042 50.0538 114.608 52.2053 114.608 54.661C114.608 57.1166 114.042 59.2682 112.91 61.1157C111.8 62.9633 110.229 64.4016 108.195 65.4306C106.185 66.4362 103.862 66.9391 101.228 66.9391H90.205V42.3829ZM100.951 62.2734C103.377 62.2734 105.307 61.5952 106.74 60.2387C108.195 58.8589 108.923 56.9997 108.923 54.661C108.923 52.3223 108.195 50.4747 106.74 49.1183C105.307 47.7385 103.377 47.0486 100.951 47.0486H95.8205V62.2734H100.951Z" stroke="white" stroke-opacity="0.5" stroke-width="2" mask="url(#path-2-outside-1)"/>
    <path d="M136.937 62.3786V66.9391H118.15V42.3829H136.487V46.9433H123.731V52.2755H134.996V56.6956H123.731V62.3786H136.937Z" stroke="white" stroke-opacity="0.5" stroke-width="2" mask="url(#path-2-outside-1)"/>
    <path d="M151.493 67.36C148.026 67.36 145.323 66.3895 143.381 64.4484C141.463 62.5072 140.504 59.7359 140.504 56.1343V42.3829H146.12V55.9239C146.12 60.3206 147.922 62.5189 151.527 62.5189C153.284 62.5189 154.624 61.9927 155.548 60.9403C156.473 59.8645 156.935 58.1924 156.935 55.9239V42.3829H162.481V56.1343C162.481 59.7359 161.51 62.5072 159.569 64.4484C157.651 66.3895 154.959 67.36 151.493 67.36Z" stroke="white" stroke-opacity="0.5" stroke-width="2" mask="url(#path-2-outside-1)"/>
    <path d="M182.797 66.9391L178.117 60.0984H177.84H172.952V66.9391H167.337V42.3829H177.84C179.989 42.3829 181.849 42.7454 183.421 43.4704C185.015 44.1954 186.24 45.2244 187.095 46.5574C187.95 47.8905 188.378 49.4691 188.378 51.2933C188.378 53.1174 187.939 54.696 187.06 56.0291C186.205 57.3388 184.981 58.3444 183.386 59.046L188.828 66.9391H182.797ZM182.693 51.2933C182.693 49.9134 182.254 48.861 181.376 48.136C180.497 47.3877 179.215 47.0135 177.528 47.0135H172.952V55.5731H177.528C179.215 55.5731 180.497 55.1989 181.376 54.4505C182.254 53.7021 182.693 52.6497 182.693 51.2933Z" stroke="white" stroke-opacity="0.5" stroke-width="2" mask="url(#path-2-outside-1)"/>
    <path d="M509.769 225.823C509.769 227.173 508.808 228.183 507.72 228.183L434.214 228.183C433.127 228.183 432.166 227.173 432.166 225.823C432.166 224.472 433.127 223.462 434.214 223.462L507.72 223.462C508.808 223.462 509.769 224.472 509.769 225.823Z" stroke="white" stroke-opacity="0.5" stroke-width="0.8"/>
    <path d="M424.737 225.823C424.737 227.167 423.766 228.183 422.655 228.183L348.113 228.183C347.002 228.183 346.03 227.167 346.03 225.823C346.03 224.478 347.002 223.462 348.113 223.462L422.655 223.462C423.766 223.462 424.737 224.478 424.737 225.823Z" stroke="white" stroke-opacity="0.5" stroke-width="0.8"/>
    <path d="M339.714 225.823C339.714 227.167 338.743 228.183 337.631 228.183L263.09 228.183C261.978 228.183 261.007 227.167 261.007 225.823C261.007 224.478 261.978 223.462 263.09 223.462L337.631 223.462C338.743 223.462 339.714 224.478 339.714 225.823Z" stroke="white" stroke-opacity="0.5" stroke-width="0.8"/>
    <path d="M254.682 225.822C254.682 227.167 253.711 228.183 252.599 228.183L178.058 228.183C176.946 228.183 175.975 227.167 175.975 225.822C175.975 224.478 176.946 223.462 178.058 223.462L252.599 223.462C253.711 223.462 254.682 224.478 254.682 225.822Z" stroke="white" stroke-opacity="0.5" stroke-width="0.8"/>
    <path d="M169.655 225.823C169.655 227.167 168.684 228.183 167.573 228.183L93.0311 228.183C91.9197 228.183 90.9483 227.167 90.9483 225.823C90.9483 224.478 91.9197 223.462 93.0311 223.462L167.573 223.462C168.684 223.462 169.655 224.478 169.655 225.823Z" stroke="white" stroke-opacity="0.5" stroke-width="0.8"/>
    <path d="M83.5258 225.822C83.5258 227.167 82.5544 228.183 81.443 228.183L6.90144 228.183C5.79002 228.183 4.81867 227.167 4.81867 225.822C4.81867 224.478 5.79002 223.462 6.90144 223.462L81.443 223.462C82.5544 223.462 83.5258 224.478 83.5258 225.822Z" stroke="white" stroke-opacity="0.5" stroke-width="0.8"/>
    <mask id="path-9-outside-2" maskUnits="userSpaceOnUse" x="38.7539" y="92.8623" width="229" height="46" fill="black">
        <rect fill="white" x="38.7539" y="92.8623" width="229" height="46"/>
        <path d="M57.768 94.5761V136.215H48.1048V102.309H39.7539V94.5761H57.768Z"/>
        <path d="M82.9162 136.929C79.4565 136.929 76.3746 136.076 73.6706 134.371C70.9665 132.666 68.839 130.207 67.2881 126.995C65.777 123.743 65.0214 119.877 65.0214 115.395C65.0214 110.914 65.777 107.068 67.2881 103.856C68.839 100.604 70.9665 98.1253 73.6706 96.4201C76.3746 94.7149 79.4565 93.8623 82.9162 93.8623C86.3758 93.8623 89.4577 94.7149 92.1618 96.4201C94.8659 98.1253 96.9735 100.604 98.4846 103.856C100.036 107.068 100.811 110.914 100.811 115.395C100.811 119.877 100.036 123.743 98.4846 126.995C96.9735 130.207 94.8659 132.666 92.1618 134.371C89.4577 136.076 86.3758 136.929 82.9162 136.929ZM82.9162 128.779C85.4612 128.779 87.4495 127.689 88.8811 125.508C90.3525 123.327 91.0881 119.956 91.0881 115.395C91.0881 110.835 90.3525 107.464 88.8811 105.283C87.4495 103.102 85.4612 102.012 82.9162 102.012C80.4109 102.012 78.4226 103.102 76.9513 105.283C75.5197 107.464 74.8039 110.835 74.8039 115.395C74.8039 119.956 75.5197 123.327 76.9513 125.508C78.4226 127.689 80.4109 128.779 82.9162 128.779Z"/>
        <path d="M123.401 136.929C119.941 136.929 116.859 136.076 114.155 134.371C111.451 132.666 109.324 130.207 107.773 126.995C106.262 123.743 105.506 119.877 105.506 115.395C105.506 110.914 106.262 107.068 107.773 103.856C109.324 100.604 111.451 98.1253 114.155 96.4201C116.859 94.7149 119.941 93.8623 123.401 93.8623C126.86 93.8623 129.942 94.7149 132.646 96.4201C135.35 98.1253 137.458 100.604 138.969 103.856C140.52 107.068 141.296 110.914 141.296 115.395C141.296 119.877 140.52 123.743 138.969 126.995C137.458 130.207 135.35 132.666 132.646 134.371C129.942 136.076 126.86 136.929 123.401 136.929ZM123.401 128.779C125.946 128.779 127.934 127.689 129.366 125.508C130.837 123.327 131.573 119.956 131.573 115.395C131.573 110.835 130.837 107.464 129.366 105.283C127.934 103.102 125.946 102.012 123.401 102.012C120.896 102.012 118.907 103.102 117.436 105.283C116.004 107.464 115.288 110.835 115.288 115.395C115.288 119.956 116.004 123.327 117.436 125.508C118.907 127.689 120.896 128.779 123.401 128.779Z"/>
        <path d="M150.721 136.691C149.091 136.691 147.719 136.136 146.605 135.025C145.492 133.915 144.935 132.527 144.935 130.861C144.935 129.156 145.492 127.788 146.605 126.757C147.719 125.686 149.091 125.151 150.721 125.151C152.351 125.151 153.723 125.686 154.837 126.757C155.95 127.788 156.507 129.156 156.507 130.861C156.507 132.527 155.95 133.915 154.837 135.025C153.723 136.136 152.351 136.691 150.721 136.691Z"/>
        <path d="M192.6 94.5761V100.822L177.092 136.215H166.593L181.565 102.428H167.727V109.209H159.137V94.5761H192.6Z"/>
        <path d="M224.484 114.325C226.552 115.356 228.122 116.704 229.196 118.37C230.31 120.035 230.866 121.959 230.866 124.14C230.866 126.717 230.131 128.978 228.659 130.921C227.188 132.824 225.12 134.311 222.456 135.382C219.791 136.413 216.71 136.929 213.21 136.929C209.711 136.929 206.629 136.413 203.965 135.382C201.34 134.311 199.292 132.824 197.821 130.921C196.389 128.978 195.673 126.717 195.673 124.14C195.673 121.959 196.21 120.035 197.284 118.37C198.397 116.704 199.968 115.356 201.996 114.325C200.445 113.373 199.252 112.183 198.417 110.756C197.582 109.288 197.164 107.623 197.164 105.759C197.164 103.34 197.84 101.238 199.193 99.4538C200.545 97.6693 202.434 96.3011 204.859 95.3494C207.285 94.358 210.069 93.8623 213.21 93.8623C216.391 93.8623 219.195 94.358 221.621 95.3494C224.086 96.3011 225.995 97.6693 227.347 99.4538C228.699 101.238 229.375 103.34 229.375 105.759C229.375 107.623 228.958 109.288 228.122 110.756C227.287 112.183 226.074 113.373 224.484 114.325ZM213.21 100.941C211.262 100.941 209.691 101.417 208.498 102.369C207.345 103.281 206.768 104.55 206.768 106.175C206.768 107.762 207.345 109.011 208.498 109.923C209.651 110.835 211.222 111.291 213.21 111.291C215.198 111.291 216.789 110.835 217.982 109.923C219.175 109.011 219.772 107.762 219.772 106.175C219.772 104.55 219.175 103.281 217.982 102.369C216.789 101.417 215.198 100.941 213.21 100.941ZM213.21 129.85C215.636 129.85 217.545 129.315 218.936 128.244C220.368 127.134 221.084 125.666 221.084 123.842C221.084 122.018 220.368 120.571 218.936 119.5C217.545 118.429 215.636 117.894 213.21 117.894C210.824 117.894 208.935 118.429 207.543 119.5C206.152 120.571 205.456 122.018 205.456 123.842C205.456 125.706 206.152 127.173 207.543 128.244C208.935 129.315 210.824 129.85 213.21 129.85Z"/>
        <path d="M254.795 111.529C258.453 112.124 261.257 113.492 263.206 115.633C265.154 117.735 266.128 120.352 266.128 123.485C266.128 125.904 265.492 128.145 264.22 130.207C262.947 132.229 260.998 133.855 258.374 135.085C255.789 136.314 252.608 136.929 248.83 136.929C245.887 136.929 242.984 136.552 240.121 135.798C237.298 135.005 234.892 133.895 232.904 132.467L236.662 125.091C238.252 126.281 240.081 127.213 242.149 127.887C244.257 128.522 246.404 128.839 248.591 128.839C251.017 128.839 252.926 128.383 254.318 127.471C255.71 126.519 256.405 125.191 256.405 123.485C256.405 120.075 253.801 118.37 248.591 118.37H244.177V112.005L252.767 102.309H234.991V94.5761H264.22V100.822L254.795 111.529Z"/>
    </mask>
    <path d="M57.768 94.5761V136.215H48.1048V102.309H39.7539V94.5761H57.768Z" stroke="white" stroke-opacity="0.5" stroke-width="2" mask="url(#path-9-outside-2)"/>
    <path d="M82.9162 136.929C79.4565 136.929 76.3746 136.076 73.6706 134.371C70.9665 132.666 68.839 130.207 67.2881 126.995C65.777 123.743 65.0214 119.877 65.0214 115.395C65.0214 110.914 65.777 107.068 67.2881 103.856C68.839 100.604 70.9665 98.1253 73.6706 96.4201C76.3746 94.7149 79.4565 93.8623 82.9162 93.8623C86.3758 93.8623 89.4577 94.7149 92.1618 96.4201C94.8659 98.1253 96.9735 100.604 98.4846 103.856C100.036 107.068 100.811 110.914 100.811 115.395C100.811 119.877 100.036 123.743 98.4846 126.995C96.9735 130.207 94.8659 132.666 92.1618 134.371C89.4577 136.076 86.3758 136.929 82.9162 136.929ZM82.9162 128.779C85.4612 128.779 87.4495 127.689 88.8811 125.508C90.3525 123.327 91.0881 119.956 91.0881 115.395C91.0881 110.835 90.3525 107.464 88.8811 105.283C87.4495 103.102 85.4612 102.012 82.9162 102.012C80.4109 102.012 78.4226 103.102 76.9513 105.283C75.5197 107.464 74.8039 110.835 74.8039 115.395C74.8039 119.956 75.5197 123.327 76.9513 125.508C78.4226 127.689 80.4109 128.779 82.9162 128.779Z" stroke="white" stroke-opacity="0.5" stroke-width="2" mask="url(#path-9-outside-2)"/>
    <path d="M123.401 136.929C119.941 136.929 116.859 136.076 114.155 134.371C111.451 132.666 109.324 130.207 107.773 126.995C106.262 123.743 105.506 119.877 105.506 115.395C105.506 110.914 106.262 107.068 107.773 103.856C109.324 100.604 111.451 98.1253 114.155 96.4201C116.859 94.7149 119.941 93.8623 123.401 93.8623C126.86 93.8623 129.942 94.7149 132.646 96.4201C135.35 98.1253 137.458 100.604 138.969 103.856C140.52 107.068 141.296 110.914 141.296 115.395C141.296 119.877 140.52 123.743 138.969 126.995C137.458 130.207 135.35 132.666 132.646 134.371C129.942 136.076 126.86 136.929 123.401 136.929ZM123.401 128.779C125.946 128.779 127.934 127.689 129.366 125.508C130.837 123.327 131.573 119.956 131.573 115.395C131.573 110.835 130.837 107.464 129.366 105.283C127.934 103.102 125.946 102.012 123.401 102.012C120.896 102.012 118.907 103.102 117.436 105.283C116.004 107.464 115.288 110.835 115.288 115.395C115.288 119.956 116.004 123.327 117.436 125.508C118.907 127.689 120.896 128.779 123.401 128.779Z" stroke="white" stroke-opacity="0.5" stroke-width="2" mask="url(#path-9-outside-2)"/>
    <path d="M150.721 136.691C149.091 136.691 147.719 136.136 146.605 135.025C145.492 133.915 144.935 132.527 144.935 130.861C144.935 129.156 145.492 127.788 146.605 126.757C147.719 125.686 149.091 125.151 150.721 125.151C152.351 125.151 153.723 125.686 154.837 126.757C155.95 127.788 156.507 129.156 156.507 130.861C156.507 132.527 155.95 133.915 154.837 135.025C153.723 136.136 152.351 136.691 150.721 136.691Z" stroke="white" stroke-opacity="0.5" stroke-width="2" mask="url(#path-9-outside-2)"/>
    <path d="M192.6 94.5761V100.822L177.092 136.215H166.593L181.565 102.428H167.727V109.209H159.137V94.5761H192.6Z" stroke="white" stroke-opacity="0.5" stroke-width="2" mask="url(#path-9-outside-2)"/>
    <path d="M224.484 114.325C226.552 115.356 228.122 116.704 229.196 118.37C230.31 120.035 230.866 121.959 230.866 124.14C230.866 126.717 230.131 128.978 228.659 130.921C227.188 132.824 225.12 134.311 222.456 135.382C219.791 136.413 216.71 136.929 213.21 136.929C209.711 136.929 206.629 136.413 203.965 135.382C201.34 134.311 199.292 132.824 197.821 130.921C196.389 128.978 195.673 126.717 195.673 124.14C195.673 121.959 196.21 120.035 197.284 118.37C198.397 116.704 199.968 115.356 201.996 114.325C200.445 113.373 199.252 112.183 198.417 110.756C197.582 109.288 197.164 107.623 197.164 105.759C197.164 103.34 197.84 101.238 199.193 99.4538C200.545 97.6693 202.434 96.3011 204.859 95.3494C207.285 94.358 210.069 93.8623 213.21 93.8623C216.391 93.8623 219.195 94.358 221.621 95.3494C224.086 96.3011 225.995 97.6693 227.347 99.4538C228.699 101.238 229.375 103.34 229.375 105.759C229.375 107.623 228.958 109.288 228.122 110.756C227.287 112.183 226.074 113.373 224.484 114.325ZM213.21 100.941C211.262 100.941 209.691 101.417 208.498 102.369C207.345 103.281 206.768 104.55 206.768 106.175C206.768 107.762 207.345 109.011 208.498 109.923C209.651 110.835 211.222 111.291 213.21 111.291C215.198 111.291 216.789 110.835 217.982 109.923C219.175 109.011 219.772 107.762 219.772 106.175C219.772 104.55 219.175 103.281 217.982 102.369C216.789 101.417 215.198 100.941 213.21 100.941ZM213.21 129.85C215.636 129.85 217.545 129.315 218.936 128.244C220.368 127.134 221.084 125.666 221.084 123.842C221.084 122.018 220.368 120.571 218.936 119.5C217.545 118.429 215.636 117.894 213.21 117.894C210.824 117.894 208.935 118.429 207.543 119.5C206.152 120.571 205.456 122.018 205.456 123.842C205.456 125.706 206.152 127.173 207.543 128.244C208.935 129.315 210.824 129.85 213.21 129.85Z" stroke="white" stroke-opacity="0.5" stroke-width="2" mask="url(#path-9-outside-2)"/>
    <path d="M254.795 111.529C258.453 112.124 261.257 113.492 263.206 115.633C265.154 117.735 266.128 120.352 266.128 123.485C266.128 125.904 265.492 128.145 264.22 130.207C262.947 132.229 260.998 133.855 258.374 135.085C255.789 136.314 252.608 136.929 248.83 136.929C245.887 136.929 242.984 136.552 240.121 135.798C237.298 135.005 234.892 133.895 232.904 132.467L236.662 125.091C238.252 126.281 240.081 127.213 242.149 127.887C244.257 128.522 246.404 128.839 248.591 128.839C251.017 128.839 252.926 128.383 254.318 127.471C255.71 126.519 256.405 125.191 256.405 123.485C256.405 120.075 253.801 118.37 248.591 118.37H244.177V112.005L252.767 102.309H234.991V94.5761H264.22V100.822L254.795 111.529Z" stroke="white" stroke-opacity="0.5" stroke-width="2" mask="url(#path-9-outside-2)"/>
    <path d="M99.7385 172.265V171.865H99.3385H91.6565H91.2565V172.265V175.147V175.547H91.6565H95.3462V190.773V191.173H95.7462H99.3385H99.7385V190.773V172.265ZM110.263 172.265V171.865H109.863H102.181H101.781V172.265V175.147V175.547H102.181H105.871V190.773V191.173H106.271H109.863H110.263V190.773V172.265ZM113.976 180.566L113.976 180.566L113.982 180.572C114.502 181.048 115.134 181.285 115.855 181.285C116.577 181.285 117.209 181.048 117.728 180.572L117.729 180.572L117.735 180.566C118.259 180.064 118.521 179.43 118.521 178.69C118.521 177.938 118.262 177.3 117.732 176.812C117.226 176.33 116.591 176.096 115.855 176.096C115.119 176.096 114.476 176.331 113.955 176.809L113.955 176.809L113.949 176.815C113.437 177.305 113.189 177.943 113.189 178.69C113.189 179.43 113.452 180.064 113.976 180.566ZM113.976 190.639L113.976 190.64L113.982 190.645C114.502 191.122 115.134 191.359 115.855 191.359C116.577 191.359 117.209 191.122 117.728 190.645L117.729 190.645L117.735 190.639C118.259 190.138 118.521 189.503 118.521 188.764C118.521 188.012 118.262 187.374 117.732 186.886C117.226 186.404 116.591 186.17 115.855 186.17C115.119 186.17 114.476 186.404 113.955 186.883L113.955 186.883L113.949 186.889C113.437 187.378 113.189 188.016 113.189 188.764C113.189 189.503 113.452 190.138 113.976 190.639ZM130.492 185.221C130.492 185.968 130.19 186.543 129.559 186.981C128.932 187.411 128.027 187.65 126.802 187.65C125.775 187.65 124.776 187.498 123.803 187.194C122.847 186.871 122.033 186.442 121.357 185.911L120.992 185.625L120.762 186.028L119.242 188.698L119.069 189.003L119.348 189.215C120.278 189.919 121.41 190.467 122.735 190.866L122.735 190.866L122.74 190.867C124.067 191.248 125.439 191.438 126.857 191.438C128.573 191.438 130.044 191.168 131.253 190.608C132.452 190.053 133.374 189.292 133.993 188.318C134.606 187.352 134.912 186.272 134.912 185.089C134.912 183.228 134.207 181.733 132.795 180.648C131.384 179.546 129.26 179.031 126.498 179.031H125.087L125.424 175.547H133.379H133.779V175.147V172.265V171.865H133.379H122.022H121.659L121.623 172.226L120.629 182.3L120.585 182.739H121.027H125.697C127.584 182.739 128.818 182.989 129.488 183.417L129.488 183.417L129.498 183.422C130.165 183.823 130.492 184.404 130.492 185.221ZM144.103 175.547L140.293 179.88L140.194 179.994V180.145V182.498V182.898H140.594H142.362C143.749 182.898 144.697 183.142 145.278 183.562L145.278 183.562L145.288 183.569C145.876 183.968 146.163 184.513 146.163 185.248C146.163 185.974 145.864 186.541 145.23 186.981C144.603 187.411 143.698 187.65 142.473 187.65C141.446 187.65 140.447 187.498 139.474 187.194C138.518 186.872 137.716 186.443 137.059 185.914L136.696 185.622L136.462 186.025L134.915 188.696L134.735 189.005L135.022 189.217C135.968 189.919 137.098 190.466 138.405 190.865L138.405 190.865L138.411 190.867C139.737 191.248 141.11 191.438 142.528 191.438C144.225 191.438 145.684 191.177 146.892 190.636L146.894 190.635C148.109 190.082 149.041 189.331 149.662 188.373C150.276 187.426 150.583 186.372 150.583 185.221C150.583 183.696 150.077 182.403 149.058 181.371C148.176 180.477 146.968 179.902 145.467 179.621L149.682 174.83L149.781 174.717V174.566V172.265V171.865H149.381H136.2H135.8V172.265V175.147V175.547H136.2H144.103Z" stroke="white" stroke-opacity="0.5" stroke-width="0.8"/>
    <path fill-rule="evenodd" clip-rule="evenodd" d="M61.8209 164.536C52.6775 164.536 45.2734 171.956 45.2734 181.1C45.2734 190.243 52.6775 197.664 61.8209 197.664C70.9807 197.664 78.4014 190.243 78.4014 181.1C78.4014 171.956 70.9807 164.536 61.8209 164.536ZM61.8374 194.351C54.5161 194.351 48.5862 188.421 48.5862 181.1C48.5862 173.778 54.5161 167.848 61.8374 167.848C69.1587 167.848 75.0886 173.778 75.0886 181.1C75.0886 188.421 69.1587 194.351 61.8374 194.351ZM60.181 172.818H62.6656V181.514L70.1194 185.936L68.8771 187.974L60.181 182.756V172.818Z" stroke="white" stroke-opacity="0.5" stroke-width="0.8"/>
    <path fill-rule="evenodd" clip-rule="evenodd" d="M200.973 164.535C191.83 164.535 184.409 171.956 184.409 181.099C184.409 190.243 191.83 197.663 200.973 197.663C210.117 197.663 217.537 190.243 217.537 181.099C217.537 171.956 210.117 164.535 200.973 164.535ZM207.997 174.076C206.059 172.138 203.524 171.161 200.973 171.161V181.099L193.95 188.123C197.826 191.998 204.121 191.998 208.013 188.123C211.889 184.247 211.889 177.952 207.997 174.076ZM187.722 181.099C187.722 188.421 193.652 194.351 200.973 194.351C208.295 194.351 214.225 188.421 214.225 181.099C214.225 173.778 208.295 167.848 200.973 167.848C193.652 167.848 187.722 173.778 187.722 181.099Z" fill="#1BC53C"/>
    <path d="M240.098 179.743C241.863 179.957 243.209 180.547 244.137 181.513C245.065 182.479 245.529 183.687 245.529 185.135C245.529 186.226 245.247 187.219 244.683 188.113C244.119 189.008 243.264 189.723 242.118 190.26C240.99 190.779 239.607 191.038 237.97 191.038C236.605 191.038 235.286 190.85 234.013 190.475C232.758 190.081 231.684 189.544 230.793 188.865L232.321 186.155C233.012 186.727 233.849 187.183 234.831 187.523C235.832 187.845 236.86 188.006 237.915 188.006C239.17 188.006 240.153 187.756 240.862 187.255C241.59 186.736 241.954 186.039 241.954 185.162C241.954 184.286 241.608 183.606 240.917 183.123C240.244 182.622 239.207 182.372 237.806 182.372H236.059V179.984L240.398 174.913H231.721V171.989H244.737V174.323L240.098 179.743Z" fill="#1BC53C"/>
    <path d="M255.818 191.038C254.289 191.038 252.925 190.662 251.724 189.911C250.523 189.142 249.577 188.033 248.886 186.584C248.195 185.117 247.849 183.382 247.849 181.379C247.849 179.376 248.195 177.65 248.886 176.201C249.577 174.734 250.523 173.625 251.724 172.874C252.925 172.105 254.289 171.72 255.818 171.72C257.346 171.72 258.71 172.105 259.911 172.874C261.13 173.625 262.085 174.734 262.776 176.201C263.468 177.65 263.813 179.376 263.813 181.379C263.813 183.382 263.468 185.117 262.776 186.584C262.085 188.033 261.13 189.142 259.911 189.911C258.71 190.662 257.346 191.038 255.818 191.038ZM255.818 188.006C257.182 188.006 258.255 187.452 259.038 186.343C259.838 185.234 260.238 183.579 260.238 181.379C260.238 179.179 259.838 177.525 259.038 176.416C258.255 175.307 257.182 174.752 255.818 174.752C254.471 174.752 253.398 175.307 252.597 176.416C251.815 177.525 251.424 179.179 251.424 181.379C251.424 183.579 251.815 185.234 252.597 186.343C253.398 187.452 254.471 188.006 255.818 188.006Z" fill="#1BC53C"/>
    <path d="M293.182 176.281C295.02 176.281 296.475 176.809 297.548 177.864C298.622 178.902 299.158 180.467 299.158 182.56V190.77H295.747V182.989C295.747 181.737 295.465 180.798 294.901 180.172C294.337 179.528 293.528 179.206 292.473 179.206C291.326 179.206 290.408 179.582 289.716 180.333C289.025 181.066 288.679 182.121 288.679 183.499V190.77H285.268V182.989C285.268 181.737 284.986 180.798 284.422 180.172C283.858 179.528 283.049 179.206 281.994 179.206C280.829 179.206 279.901 179.573 279.21 180.306C278.537 181.039 278.2 182.104 278.2 183.499V190.77H274.789V176.442H278.037V178.267C278.583 177.623 279.265 177.131 280.083 176.791C280.902 176.451 281.812 176.281 282.812 176.281C283.904 176.281 284.868 176.487 285.705 176.899C286.56 177.292 287.233 177.882 287.724 178.669C288.325 177.918 289.098 177.337 290.044 176.925C290.99 176.496 292.036 176.281 293.182 176.281Z" fill="#1BC53C"/>
    <path d="M303.517 176.442H306.928V190.77H303.517V176.442ZM305.237 174.081C304.618 174.081 304.1 173.894 303.681 173.518C303.263 173.124 303.053 172.642 303.053 172.069C303.053 171.497 303.263 171.023 303.681 170.647C304.1 170.254 304.618 170.057 305.237 170.057C305.855 170.057 306.374 170.245 306.792 170.62C307.21 170.978 307.42 171.434 307.42 171.989C307.42 172.579 307.21 173.08 306.792 173.491C306.392 173.885 305.873 174.081 305.237 174.081Z" fill="#1BC53C"/>
    <path d="M319.674 176.281C321.512 176.281 322.985 176.809 324.095 177.864C325.205 178.92 325.76 180.485 325.76 182.56V190.77H322.348V182.989C322.348 181.737 322.048 180.798 321.448 180.172C320.848 179.528 319.992 179.206 318.883 179.206C317.627 179.206 316.636 179.582 315.908 180.333C315.181 181.066 314.817 182.13 314.817 183.526V190.77H311.406V176.442H314.653V178.294C315.217 177.632 315.926 177.131 316.781 176.791C317.637 176.451 318.601 176.281 319.674 176.281Z" fill="#1BC53C"/>
    <path fill-rule="evenodd" clip-rule="evenodd" d="M356.896 181.1L364.515 188.719L362.196 191.038L352.258 181.1L362.196 171.161L364.515 173.48L356.896 181.1ZM380.748 181.1L373.128 188.719L375.447 191.038L385.386 181.1L375.447 171.161L373.128 173.48L380.748 181.1Z" stroke="white" stroke-opacity="0.5" stroke-width="0.8"/>
    <path d="M423.024 190.785L423.023 190.784C421.638 190.349 420.513 189.765 419.667 189.018L419.449 188.826L419.566 188.559L420.78 185.771L420.989 185.289L421.398 185.619C422.13 186.212 423.032 186.706 424.112 187.099C425.205 187.471 426.293 187.656 427.378 187.656C428.751 187.656 429.699 187.428 430.284 187.034L430.288 187.031L430.288 187.031C430.892 186.635 431.16 186.147 431.16 185.544C431.16 185.1 431.007 184.761 430.702 184.491L430.694 184.484L430.687 184.477C430.359 184.158 429.928 183.901 429.38 183.714C428.802 183.517 428.005 183.29 426.985 183.033C426.985 183.033 426.985 183.033 426.984 183.033L427.082 182.645L423.024 190.785ZM423.024 190.785C424.43 191.22 425.882 191.437 427.378 191.437M423.024 190.785L427.378 191.437M427.378 191.437C429.073 191.437 430.534 191.174 431.75 190.63C432.955 190.09 433.876 189.355 434.484 188.413C435.104 187.481 435.413 186.438 435.413 185.295C435.413 183.975 435.071 182.879 434.344 182.052C433.673 181.267 432.856 180.687 431.897 180.313C430.973 179.935 429.802 179.581 428.39 179.247C427.371 178.991 426.575 178.764 425.997 178.567C425.446 178.379 425.001 178.128 424.652 177.821C424.365 177.553 424.217 177.213 424.217 176.765C424.217 176.108 424.483 175.592 425.047 175.186L427.378 191.437ZM417.126 182.195L417.128 182.193C417.819 181.072 418.158 179.773 418.158 178.311C418.158 176.831 417.82 175.531 417.126 174.426C416.432 173.323 415.434 172.482 414.147 171.901C412.879 171.32 411.399 171.037 409.719 171.037H401.949H401.549V171.437V190.761V191.161H401.949H405.456H405.856V190.761V185.585H409.719C411.399 185.585 412.879 185.301 414.147 184.721C415.434 184.14 416.432 183.299 417.126 182.195ZM439.435 191.161H439.702L439.804 190.915L441.563 186.689H450.473L452.259 190.917L452.362 191.161H452.627H456.296H456.91L456.662 190.6L448.137 171.275L448.032 171.037H447.771H444.318H444.057L443.952 171.276L435.454 190.6L435.207 191.161H435.82H439.435ZM470.723 190.987L470.842 191.161H471.054H474.831H475.589L475.161 190.536L471.091 184.586C472.235 184.047 473.139 183.282 473.789 182.286C474.54 181.162 474.907 179.831 474.907 178.311C474.907 176.831 474.568 175.531 473.875 174.426C473.181 173.323 472.182 172.482 470.896 171.901C469.628 171.32 468.148 171.037 466.468 171.037H458.698H458.298V171.437V190.761V191.161H458.698H462.205H462.605V190.761V185.53H466.468C466.67 185.53 466.846 185.526 466.996 185.519L470.723 190.987ZM412.78 180.848C412.089 181.427 411.036 181.748 409.557 181.748H405.856V174.873H409.557C411.036 174.873 412.089 175.195 412.78 175.774C413.463 176.346 413.824 177.171 413.824 178.311C413.824 179.451 413.463 180.276 412.78 180.848ZM443.084 183.073L446.019 176.059L448.976 183.073H443.084ZM469.529 175.774C470.212 176.346 470.573 177.171 470.573 178.311C470.573 179.449 470.213 180.286 469.527 180.877C468.835 181.455 467.783 181.776 466.306 181.776H462.605V174.873H466.306C467.784 174.873 468.837 175.195 469.529 175.774Z" stroke="white" stroke-opacity="0.5" stroke-width="0.8"/>
    <path d="M447.783 99.8872C449.499 96.9374 453.792 96.9374 455.508 99.8872L474.835 133.11C476.547 136.052 474.411 139.741 470.973 139.741L432.318 139.741C428.88 139.741 426.744 136.052 428.456 133.11L447.783 99.8872Z" stroke="white" stroke-opacity="0.5"/>
    <path d="M396.93 62.2802C396.93 59.8834 398.92 57.9214 401.399 57.9214C403.878 57.9214 405.868 59.8834 405.868 62.2802V64.7095C405.868 67.1063 403.878 69.0683 401.399 69.0683C398.92 69.0683 396.93 67.1063 396.93 64.7095V62.2802Z" stroke="white" stroke-opacity="0.5"/>
    <path d="M414.601 56.9485C414.601 54.4292 416.609 52.4004 419.07 52.4004C421.531 52.4004 423.539 54.4292 423.539 56.9485V64.5206C423.539 67.0398 421.531 69.0686 419.07 69.0686C416.609 69.0686 414.601 67.0398 414.601 64.5206V56.9485Z" stroke="white" stroke-opacity="0.5"/>
    <path d="M432.27 52.3912C432.27 49.9627 434.265 47.9834 436.739 47.9834C439.213 47.9834 441.208 49.9627 441.208 52.3912V64.6609C441.208 67.0894 439.213 69.0687 436.739 69.0687C434.265 69.0687 432.27 67.0894 432.27 64.6609V52.3912Z" stroke="white" stroke-opacity="0.5"/>
    <path d="M448.828 46.9813C448.828 44.4806 450.834 42.4619 453.297 42.4619C455.761 42.4619 457.767 44.4806 457.767 46.9813V64.5492C457.767 67.0499 455.761 69.0685 453.297 69.0685C450.834 69.0685 448.828 67.0499 448.828 64.5492V46.9813Z" stroke="white" stroke-opacity="0.5"/>
    <path d="M466.496 42.4716C466.496 40.0309 468.493 38.0449 470.965 38.0449C473.438 38.0449 475.434 40.0309 475.434 42.4716V64.6419C475.434 67.0827 473.438 69.0686 470.965 69.0686C468.493 69.0686 466.496 67.0827 466.496 64.6419V42.4716Z" stroke="white" stroke-opacity="0.5"/>
</svg>
