<svg xmlns="http://www.w3.org/2000/svg" display="none">

    <symbol id="clock" viewBox="0 0 124 169">
        <path d="M84.1193 168.004C37.7688 168.004 0.194214 130.43 0.194214 84.0792C0.194214 37.7286 37.7688 0.154053 84.1193 0.154053C130.47 0.154053 168.044 37.7286 168.044 84.0792C167.994 130.409 130.449 167.953 84.1193 168.004ZM84.1193 16.9391C47.0389 16.9391 16.9792 46.9987 16.9792 84.0792C16.9792 121.16 47.0389 151.219 84.1193 151.219C121.2 151.219 151.259 121.16 151.259 84.0792C151.218 47.016 121.183 16.9807 84.1193 16.9391ZM126.082 92.4717H75.7268V42.1166H92.5119V75.6867H126.082V92.4717Z"/>
    </symbol>

    <symbol id="smile" viewBox="0 0 144 173">
        <path d="M86.0226 172.437C38.518 172.437 0.00799561 133.927 0.00799561 86.4225C0.00799561 38.918 38.518 0.407959 86.0226 0.407959C133.527 0.407959 172.037 38.918 172.037 86.4225C171.985 133.905 133.505 172.385 86.0226 172.437ZM86.0226 17.6109C48.0189 17.6109 17.2109 48.4189 17.2109 86.4225C17.2109 124.426 48.0189 155.234 86.0226 155.234C124.026 155.234 154.834 124.426 154.834 86.4225C154.792 48.4366 124.008 17.6535 86.0226 17.6109ZM86.0226 138.031C72.4324 138.261 59.5868 131.838 51.6167 120.828C47.7467 115.653 44.8337 109.827 43.0153 103.625H129.03C129.03 103.625 129.03 103.625 129.03 103.694C127.183 109.863 124.272 115.662 120.428 120.828C112.457 131.837 99.6123 138.26 86.0226 138.031ZM55.9175 86.4225C48.7918 86.4225 43.0153 80.646 43.0153 73.5203C43.0153 66.3947 48.7918 60.6181 55.9175 60.6181C63.0431 60.6181 68.8196 66.3947 68.8196 73.5203C68.8196 80.646 63.0431 86.4225 55.9175 86.4225ZM116.067 86.3021C108.975 86.3021 103.225 80.5525 103.225 73.4601C103.225 66.3677 108.975 60.6181 116.067 60.6181C123.16 60.6181 128.909 66.3677 128.909 73.4601C128.9 80.5486 123.156 86.2926 116.067 86.3021Z"/>
    </symbol>

    <symbol id="user" viewBox="0 0 128 167">
        <path d="M18.306 166.104H0.824455V157.363C0.86299 123.587 28.234 96.2162 62.0097 96.1777H96.9727C130.748 96.2162 158.119 123.587 158.158 157.363V166.104H140.676V157.363C140.648 133.238 121.098 113.688 96.9727 113.659H62.0097C37.8848 113.688 18.3349 133.238 18.306 157.363V166.104ZM79.4912 87.4369C55.3543 87.4369 35.7875 67.8701 35.7875 43.7332C35.7875 19.5963 55.3543 0.0294189 79.4912 0.0294189C103.628 0.0294189 123.195 19.5963 123.195 43.7332C123.166 67.8581 103.616 87.408 79.4912 87.4369ZM79.4912 17.5109C65.0091 17.5109 53.269 29.251 53.269 43.7332C53.269 58.2153 65.0091 69.9554 79.4912 69.9554C93.9733 69.9554 105.713 58.2153 105.713 43.7332C105.713 29.251 93.9733 17.5109 79.4912 17.5109Z"/>
    </symbol>


    <symbol id="house" viewBox="0 0 119 173">
        <path d="M139.546 172.277H9.86253C4.74666 172.277 0.599426 168.129 0.599426 163.013V73.6893C0.742923 71.4193 1.70766 69.2791 3.31352 67.6682L68.1553 2.82649C69.8927 1.08709 72.2504 0.109741 74.7089 0.109741C77.1674 0.109741 79.5251 1.08709 81.2625 2.82649L146.104 67.6682C147.843 69.403 148.817 71.7608 148.809 74.2173V163.013C148.809 168.129 144.662 172.277 139.546 172.277ZM74.7043 22.4735L19.1256 78.0522V153.75H130.283V78.0522L74.7043 22.4735ZM74.7043 135.215C72.7775 133.501 70.6007 131.713 68.2942 129.824L67.8588 129.472C57.1414 120.727 43.7748 109.843 43.7748 96.3098C43.7762 91.8259 45.5835 87.5317 48.7887 84.3962C51.9939 81.2607 56.3268 79.5483 60.8096 79.6454C66.1099 79.6312 71.1646 81.8788 74.7043 85.8239C78.2447 81.8798 83.2989 79.6323 88.5989 79.6454C93.0769 79.5583 97.4017 81.2765 100.599 84.4129C103.796 87.5493 105.598 91.8402 105.597 96.319C105.597 109.899 92.1467 120.857 81.3459 129.666L80.8179 130.102C78.6226 131.899 76.5476 133.594 74.695 135.233L74.7043 135.215Z"/>
    </symbol>

    <symbol id="percent" viewBox="0 0 282 331">
        <path d="M70.1358 137.155C49.966 137.155 33.3107 130.602 20.1698 117.496C6.72326 104.085 0 87.779 0 68.5773C0 49.6805 6.72326 33.5267 20.1698 20.116C33.6163 6.70533 50.2716 0 70.1358 0C90 0 106.655 6.70533 120.102 20.116C133.548 33.5267 140.272 49.6805 140.272 68.5773C140.272 88.0838 133.701 104.39 120.56 117.496C107.419 130.602 90.6112 137.155 70.1358 137.155ZM29.3379 68.5773C29.3379 80.1593 33.1579 89.9125 40.798 97.837C48.438 105.761 58.2173 109.724 70.1358 109.724C82.0543 109.724 91.8336 105.761 99.4737 97.837C107.114 89.9125 110.934 80.1593 110.934 68.5773C110.934 56.9954 107.114 47.2422 99.4737 39.3177C91.8336 31.3932 82.0543 27.4309 70.1358 27.4309C58.2173 27.4309 48.438 31.3932 40.798 39.3177C33.1579 47.2422 29.3379 56.9954 29.3379 68.5773ZM35.2971 293.054L16.0441 282.081L231.036 41.1464L250.747 52.1188L35.2971 293.054ZM249.83 311.341C236.689 324.447 220.034 331 199.864 331C179.694 331 163.039 324.447 149.898 311.341C136.452 297.93 129.728 281.624 129.728 262.423C129.728 243.526 136.452 227.372 149.898 213.961C163.345 200.551 180 193.845 199.864 193.845C219.728 193.845 236.384 200.551 249.83 213.961C263.277 227.372 270 243.526 270 262.423C270 281.624 263.277 297.93 249.83 311.341ZM159.066 262.423C159.066 274.005 162.886 283.758 170.526 291.682C178.166 299.607 187.946 303.569 199.864 303.569C211.783 303.569 221.562 299.607 229.202 291.682C236.842 283.758 240.662 274.005 240.662 262.423C240.662 250.841 236.842 241.087 229.202 233.163C221.562 225.238 211.783 221.276 199.864 221.276C187.946 221.276 178.166 225.238 170.526 233.163C162.886 241.087 159.066 250.841 159.066 262.423Z"
              fill="#28A4DE"/>
        <path d="M82.1358 137.155C61.966 137.155 45.3107 130.602 32.1698 117.496C18.7233 104.085 12 87.779 12 68.5773C12 49.6805 18.7233 33.5267 32.1698 20.116C45.6163 6.70533 62.2716 0 82.1358 0C102 0 118.655 6.70533 132.102 20.116C145.548 33.5267 152.272 49.6805 152.272 68.5773C152.272 88.0838 145.701 104.39 132.56 117.496C119.419 130.602 102.611 137.155 82.1358 137.155ZM41.3379 68.5773C41.3379 80.1593 45.1579 89.9125 52.798 97.837C60.438 105.761 70.2173 109.724 82.1358 109.724C94.0543 109.724 103.834 105.761 111.474 97.837C119.114 89.9125 122.934 80.1593 122.934 68.5773C122.934 56.9954 119.114 47.2422 111.474 39.3177C103.834 31.3932 94.0543 27.4309 82.1358 27.4309C70.2173 27.4309 60.438 31.3932 52.798 39.3177C45.1579 47.2422 41.3379 56.9954 41.3379 68.5773ZM47.2971 293.054L28.0441 282.081L243.036 41.1464L262.747 52.1188L47.2971 293.054ZM261.83 311.341C248.689 324.447 232.034 331 211.864 331C191.694 331 175.039 324.447 161.898 311.341C148.452 297.93 141.728 281.624 141.728 262.423C141.728 243.526 148.452 227.372 161.898 213.961C175.345 200.551 192 193.845 211.864 193.845C231.728 193.845 248.384 200.551 261.83 213.961C275.277 227.372 282 243.526 282 262.423C282 281.624 275.277 297.93 261.83 311.341ZM171.066 262.423C171.066 274.005 174.886 283.758 182.526 291.682C190.166 299.607 199.946 303.569 211.864 303.569C223.783 303.569 233.562 299.607 241.202 291.682C248.842 283.758 252.662 274.005 252.662 262.423C252.662 250.841 248.842 241.087 241.202 233.163C233.562 225.238 223.783 221.276 211.864 221.276C199.946 221.276 190.166 225.238 182.526 233.163C174.886 241.087 171.066 250.841 171.066 262.423Z"
              fill="white"/>
    </symbol>

    <symbol id="arrow-left" viewBox="0 0 31 14">
        <path d="M7.28906 13L1.00138 7L7.28906 0.999999"/>
        <path d="M31 6.87183L1.3596 6.87183"/>
    </symbol>

    <symbol id="arrow-right" viewBox="0 0 31 14">
        <path d="M23.7109 1L29.9986 7L23.7109 13"/>
        <path d="M0 7.12817L29.6404 7.12818"/>
    </symbol>

    <symbol id="arrow-links" viewBox="0 0 20 20">
        <path d="M10 20C4.47967 19.994 0.00606237 15.5204 0 10V9.80002C0.109931 4.30455 4.63459 -0.0720257 10.1307 0.000898217C15.6268 0.0738221 20.0337 4.5689 19.9978 10.0654C19.9619 15.5618 15.4966 19.9989 10 20ZM10 2.00002C5.58172 2.00002 2 5.58174 2 10C2 14.4183 5.58172 18 10 18C14.4183 18 18 14.4183 18 10C17.995 5.5838 14.4162 2.00498 10 2.00002ZM8.55 15L7.136 13.585L10.671 10.05L7.136 6.51502L8.55 5.10002L13.5 10.05L8.551 15H8.55Z"/>
    </symbol>

</svg>