<svg width="3277" height="288" viewBox="0 0 3277 288" fill="none" xmlns="http://www.w3.org/2000/svg">
    <g filter="url(#filter0_i)">
        <path d="M0.2 284H99.4L206.6 188L313.4 284H413L255.4 144L413 3.99998H313.4L206.6 100L99.4 3.99998H0.2L157.8 144L0.2 284ZM448.497 187.6C448.497 268.4 516.897 288 631.697 288C735.297 288 806.097 272.8 806.097 198C806.097 127.2 737.697 121.2 627.297 115.2C545.697 110.4 528.897 106.4 528.897 84.8C528.897 64 545.697 57.2 616.497 57.2C691.297 57.2 722.097 64.8 722.097 95.6H794.097C794.097 26.4 730.097 -1.52588e-05 624.497 -1.52588e-05C519.697 -1.52588e-05 456.897 19.6 456.897 81.2C456.897 144 505.297 163.2 627.297 168.8C718.097 173.2 734.097 177.2 734.097 200.4C734.097 222.4 711.297 230.8 635.697 230.8C544.497 230.8 520.497 217.2 520.497 187.6H448.497ZM983.319 192V284H1055.32V192L1213.72 3.99998H1126.92L1019.32 131.6L911.719 3.99998H824.919L983.319 192ZM1243.14 187.6C1243.14 268.4 1311.54 288 1426.34 288C1529.94 288 1600.74 272.8 1600.74 198C1600.74 127.2 1532.34 121.2 1421.94 115.2C1340.34 110.4 1323.54 106.4 1323.54 84.8C1323.54 64 1340.34 57.2 1411.14 57.2C1485.94 57.2 1516.74 64.8 1516.74 95.6H1588.74C1588.74 26.4 1524.74 -1.52588e-05 1419.14 -1.52588e-05C1314.34 -1.52588e-05 1251.54 19.6 1251.54 81.2C1251.54 144 1299.94 163.2 1421.94 168.8C1512.74 173.2 1528.74 177.2 1528.74 200.4C1528.74 222.4 1505.94 230.8 1430.34 230.8C1339.14 230.8 1315.14 217.2 1315.14 187.6H1243.14ZM1988.56 3.99998H1644.56V64.4H1780.56V284H1852.56V64.4H1988.56V3.99998ZM2352.23 61.2V3.99998H2056.23V284H2352.23V226.8H2128.23V170H2352.23V118H2128.23V61.2H2352.23ZM2851.3 3.99998H2754.1L2636.9 201.6L2519.7 3.99998H2422.5V284H2494.5V92L2610.9 284H2662.9L2779.3 92V284H2851.3V3.99998ZM2919.14 187.6C2919.14 268.4 2987.54 288 3102.34 288C3205.94 288 3276.74 272.8 3276.74 198C3276.74 127.2 3208.34 121.2 3097.94 115.2C3016.34 110.4 2999.54 106.4 2999.54 84.8C2999.54 64 3016.34 57.2 3087.14 57.2C3161.94 57.2 3192.74 64.8 3192.74 95.6H3264.74C3264.74 26.4 3200.74 -1.52588e-05 3095.14 -1.52588e-05C2990.34 -1.52588e-05 2927.54 19.6 2927.54 81.2C2927.54 144 2975.94 163.2 3097.94 168.8C3188.74 173.2 3204.74 177.2 3204.74 200.4C3204.74 222.4 3181.94 230.8 3106.34 230.8C3015.14 230.8 2991.14 217.2 2991.14 187.6H2919.14Z" fill="#A10D24"/>
    </g>
    <defs>
        <filter id="filter0_i" x="-3.80005" y="0" width="3280.54" height="292" filterUnits="userSpaceOnUse" color-interpolation-filters="sRGB">
            <feFlood flood-opacity="0" result="BackgroundImageFix"/>
            <feBlend mode="normal" in="SourceGraphic" in2="BackgroundImageFix" result="shape"/>
            <feColorMatrix in="SourceAlpha" type="matrix" values="0 0 0 0 0 0 0 0 0 0 0 0 0 0 0 0 0 0 127 0" result="hardAlpha"/>
            <feOffset dx="-4" dy="4"/>
            <feGaussianBlur stdDeviation="5"/>
            <feComposite in2="hardAlpha" operator="arithmetic" k2="-1" k3="1"/>
            <feColorMatrix type="matrix" values="0 0 0 0 0 0 0 0 0 0 0 0 0 0 0 0 0 0 0.25 0"/>
            <feBlend mode="normal" in2="shape" result="effect1_innerShadow"/>
        </filter>
    </defs>
</svg>
